<svg width="100" height="100" viewBox="0 0 100 100" fill="none" xmlns="http://www.w3.org/2000/svg">
<path d="M50.0002 61.8219C56.5292 61.8219 61.8221 56.529 61.8221 49.9999C61.8221 43.4708 56.5292 38.178 50.0002 38.178C43.4711 38.178 38.1782 43.4708 38.1782 49.9999C38.1782 56.529 43.4711 61.8219 50.0002 61.8219Z" fill="#272727"/>
<path fill-rule="evenodd" clip-rule="evenodd" d="M43.5928 43.3431L46.4741 58.2804L45.4799 48.2826L50.3936 47.9623L50.3844 46.289L52.3236 41.7194L50.4735 44.7631L43.5928 43.3431Z" fill="white"/>
<path fill-rule="evenodd" clip-rule="evenodd" d="M51.4499 50.7858L52.3236 41.7206L50.8438 48.445L47.5232 48.622L47.789 52.0864L46.4741 58.2804L48.5155 51.525L51.4499 50.7858Z" fill="white"/>
<path fill-rule="evenodd" clip-rule="evenodd" d="M52.0274 52.9249L52.1204 51.155L49.4149 51.7908L49.4095 53.7882L46.4741 58.2804L50.1448 53.6047L52.0274 52.9249Z" fill="white"/>
<path fill-rule="evenodd" clip-rule="evenodd" d="M52.5205 52.1141L55.0333 51.3131L55.2888 49.1913L52.5969 49.546L52.5205 52.1141Z" fill="white"/>
<path fill-rule="evenodd" clip-rule="evenodd" d="M53.5971 49.0848L55.4575 48.8449L55.7252 47.1047L54.3573 47.0416L52.3237 41.7194L53.751 46.9625L53.5971 49.0848Z" fill="white"/>
<path fill-rule="evenodd" clip-rule="evenodd" d="M56.1949 46.8485L56.4076 45.239L54.7916 44.7829L52.3237 41.7194L54.7759 45.5182L54.7044 46.7034L56.1949 46.8485Z" fill="white"/>
<path d="M43.2991 19.8242C43.6067 19.8242 43.8558 20.0733 43.8558 20.3809C43.8558 20.6885 43.6067 20.9377 43.2991 20.9377H37.9766L34.1448 24.7695C33.9277 24.9866 33.5755 24.9866 33.357 24.7695C33.1399 24.5524 33.1399 24.2002 33.357 23.9817L36.4024 20.9363H27.3901C24.8193 20.9363 23.1156 21.5362 22.0745 22.7471C21.0167 23.9789 20.588 25.8844 20.588 28.4677C20.588 28.483 20.588 28.4983 20.5866 28.5136L20.6339 36.7034L23.9132 33.4241C24.1303 33.207 24.4824 33.207 24.701 33.4241C24.9181 33.6412 24.9181 33.9934 24.701 34.2119L20.6437 38.2692C20.6896 46.2669 20.6868 54.1963 20.6409 62.194C26.3295 67.8185 31.9387 73.4236 37.5618 79.1107H43.2267C43.5343 79.1107 43.7835 79.3599 43.7835 79.6675C43.7835 79.9751 43.5343 80.2242 43.2267 80.2242H38.6628L44.4529 86.0812L44.4543 86.0798C46.2819 87.9073 47.9312 88.9499 49.5486 89.0737C51.1437 89.1948 52.7721 88.414 54.5899 86.5976L60.9633 80.2242H56.3381C56.0305 80.2242 55.7814 79.9751 55.7814 79.6675C55.7814 79.3599 56.0305 79.1107 56.3381 79.1107H62.0768L65.7875 75.4C66.0046 75.1829 66.3568 75.1829 66.5753 75.4C66.7924 75.6172 66.7924 75.9693 66.5753 76.1878L63.651 79.1121H72.6633C75.2341 79.1121 76.9377 78.5122 77.9788 77.3013C79.0367 76.0695 79.4654 74.164 79.4654 71.5807H79.4681L79.4208 63.3451L75.8465 66.9194C75.6294 67.1365 75.2772 67.1365 75.0587 66.9194C74.8416 66.7023 74.8416 66.3501 75.0587 66.1316L79.4111 61.7792C79.3651 53.7816 79.3679 45.8521 79.4139 37.8544C73.7253 32.2299 68.1161 26.6248 62.4929 20.9377H56.6568C56.3492 20.9377 56.1001 20.6885 56.1001 20.3809C56.1001 20.0733 56.3492 19.8242 56.6568 19.8242H61.392L55.6282 13.9937C55.6185 13.9853 55.6102 13.9769 55.6004 13.9686C53.7729 12.1411 52.1235 11.0986 50.5062 10.9747C48.9111 10.8536 47.2826 11.6344 45.4648 13.4508L39.0915 19.8242H43.3005H43.2991ZM27.3901 19.8242H37.5159L44.6756 12.6644C46.7398 10.6003 48.6508 9.71923 50.5869 9.86677C52.4993 10.0115 54.3714 11.1668 56.3868 13.1822C56.3979 13.1933 56.4077 13.2031 56.4174 13.2142L62.9523 19.8242H72.6633C75.5807 19.8242 77.5557 20.5535 78.8223 22.0275C80.0722 23.482 80.5775 25.6213 80.5775 28.4705C80.5775 28.4886 80.5761 28.5053 80.5747 28.522L80.5246 37.3923L86.8701 43.6669L86.8715 43.6655C88.8869 45.6809 90.0422 47.5516 90.1869 49.4654C90.3344 51.4015 89.452 53.3125 87.3893 55.3766L80.5218 62.2441L80.5747 71.5835H80.5775C80.5775 74.4327 80.0708 76.572 78.8223 78.0265C77.5557 79.5005 75.5807 80.2298 72.6633 80.2298H62.5375L55.3777 87.3896C53.3136 89.4537 51.4025 90.3348 49.4665 90.1872C47.554 90.0425 45.682 88.8872 43.6665 86.8718L43.6679 86.8704L37.1011 80.2284H27.3901C24.4727 80.2284 22.4976 79.4991 21.231 78.0251C19.9811 76.5706 19.4759 74.4313 19.4759 71.5821H19.4787L19.5302 62.6603L13.2153 56.4178C13.2042 56.408 13.193 56.3983 13.1833 56.3871C11.1678 54.3717 10.0126 52.501 9.86785 50.5872C9.72031 48.6511 10.6028 46.7401 12.6655 44.676L19.533 37.8085L19.4801 28.522C19.4787 28.5053 19.4773 28.4872 19.4773 28.4705C19.4773 25.6213 19.9839 23.482 21.2324 22.0275C22.499 20.5535 24.4741 19.8242 27.3914 19.8242H27.3901ZM19.6012 50.0263L19.5399 39.3743L13.4519 45.4624C11.6355 47.2788 10.8547 48.9086 10.9758 50.5037C11.0983 52.1211 12.1422 53.7718 13.9697 55.5979C13.978 55.6063 13.9878 55.616 13.9947 55.6258L19.5385 61.1056L19.6012 50.0249V50.0263ZM20.6325 63.7501L20.588 71.5821H20.5908C20.5908 74.1668 21.0195 76.0723 22.0773 77.3027C23.1184 78.515 24.8221 79.1135 27.3928 79.1135H36.0029L28.5147 71.539L20.6339 63.7487L20.6325 63.7501ZM72.6633 20.9377H64.0532L71.5415 28.5122L79.4222 36.3025L79.4668 28.5164C79.4654 28.5011 79.4654 28.4858 79.4654 28.4705C79.4654 25.8858 79.0367 23.9803 77.9788 22.7499C76.9377 21.5376 75.2341 20.9391 72.6633 20.9391V20.9377ZM80.5162 38.9456L80.4536 50.0263L80.5148 60.6783L86.6029 54.5902C88.4192 52.7738 89.2001 51.144 89.079 49.5489C88.9565 47.9301 87.9126 46.2808 86.0851 44.4547L86.0865 44.4533L80.5162 38.947V38.9456Z" fill="#272727"/>
<path d="M31.9536 56.9298L32.4151 58.2195L32.8354 58.0692L32.6962 57.6804L35.585 56.6463L35.8805 57.4718L35.479 57.6155L35.6296 58.0357L36.4509 57.7417L35.3967 54.7965L34.5752 55.0905L34.7264 55.5127L35.1277 55.3691L35.427 56.2053L32.5382 57.2392L32.3736 56.7795L31.9536 56.9298ZM33.0307 59.6212L33.7619 60.7795L34.1393 60.5413L33.8975 60.1583L35.0184 59.451L36.1595 61.2589L35.0387 61.9664L34.7969 61.5834L34.4195 61.8214L35.1507 62.98L35.5281 62.7417L35.2899 62.3643L37.8844 60.7267L38.1227 61.1041L38.5001 60.8658L37.7689 59.7075L37.3915 59.9457L37.6333 60.3287L36.537 61.0206L35.3958 59.2128L36.4921 58.5206L36.7339 58.9036L37.1111 58.6654L36.3802 57.5071L36.0027 57.7453L36.2421 58.1245L33.6475 59.7622L33.4082 59.383L33.0307 59.6212ZM35.5682 63.4296L37.5505 65.4565L38.1728 64.8478L37.8608 64.5289L37.5577 64.8253L36.4368 63.6795L37.3843 62.7527L38.6076 64.0033L38.9266 63.6913L37.7033 62.4406L38.6303 61.5341L39.6952 62.6229L39.3905 62.9209L39.7026 63.24L40.3262 62.63L38.3997 60.6602L38.0807 60.9722L38.3027 61.1993L36.1091 63.3447L35.8872 63.1176L35.5682 63.4296ZM40.2107 67.2905L41.4034 67.9644L41.6228 67.576L41.2633 67.3728L42.7727 64.7015L43.5362 65.1329L43.3265 65.5041L43.7149 65.7235L44.1443 64.9638L41.4208 63.4252L40.9916 64.1847L41.3819 64.4053L41.5916 64.0341L42.3647 64.4711L40.8555 67.1424L40.4302 66.9022L40.2107 67.2905ZM44.7619 69.0596C44.8948 69.0025 45.0131 68.9199 45.1168 68.812C45.2205 68.704 45.3004 68.5695 45.3564 68.4089C45.4471 68.1491 45.4719 67.928 45.4306 67.746C45.3907 67.5642 45.3084 67.4116 45.1839 67.2881C45.0479 67.1527 44.9002 67.0282 44.7407 66.9142C44.5799 66.8 44.447 66.6869 44.3419 66.575C44.277 66.5004 44.2308 66.4217 44.2036 66.3383C44.1762 66.2551 44.1815 66.1596 44.219 66.0521C44.2464 65.9738 44.2841 65.904 44.3323 65.8424C44.38 65.7822 44.4365 65.7329 44.5016 65.6948C44.5701 65.656 44.6495 65.6328 44.74 65.6252C44.8299 65.6189 44.9288 65.6348 45.0363 65.6722C45.1424 65.7093 45.2363 65.7548 45.318 65.8085C45.4001 65.8607 45.4697 65.9125 45.527 65.9638L45.4164 66.2803L45.8397 66.4284L46.0228 65.9044C45.9611 65.803 45.8946 65.7153 45.8232 65.6417C45.7512 65.5694 45.678 65.5079 45.6033 65.4565C45.5281 65.4068 45.4547 65.3655 45.3831 65.3328C45.3102 65.2993 45.2415 65.2714 45.1772 65.2489C44.9816 65.1804 44.8056 65.1525 44.649 65.1652C44.4934 65.1797 44.3577 65.2201 44.2422 65.2864C44.126 65.3539 44.0301 65.4403 43.954 65.5455C43.8766 65.6502 43.8195 65.7619 43.7827 65.8808C43.7082 66.1025 43.6939 66.2897 43.7394 66.4418C43.7836 66.5937 43.8603 66.7262 43.9694 66.8397C44.0727 66.9526 44.192 67.0547 44.3281 67.1462C44.4639 67.2376 44.5868 67.3322 44.6968 67.4304C44.7655 67.4984 44.8228 67.5653 44.8685 67.6316C44.9158 67.6983 44.9495 67.7768 44.9698 67.8669C44.9816 67.9229 44.9812 67.9844 44.9685 68.0522C44.9544 68.1194 44.9361 68.1852 44.9136 68.2494C44.8775 68.3529 44.8261 68.4368 44.7597 68.5015C44.6932 68.5659 44.6185 68.6137 44.5357 68.6442C44.451 68.671 44.3615 68.6828 44.2669 68.6795C44.1724 68.6761 44.0785 68.6583 43.9848 68.6255C43.8255 68.5697 43.6906 68.4937 43.5802 68.3971C43.4697 68.3005 43.3807 68.2004 43.3136 68.0969L43.4798 67.6211L43.0587 67.4739L42.8416 68.0942C42.8628 68.1816 42.9041 68.272 42.9656 68.3656C43.0256 68.4587 43.1008 68.5485 43.1912 68.6351C43.2797 68.7225 43.383 68.8042 43.5008 68.8796C43.619 68.9538 43.7459 69.0147 43.8815 69.0622C44.031 69.1144 44.1817 69.1405 44.3339 69.1403C44.4847 69.1396 44.6272 69.1129 44.7619 69.0596ZM45.504 69.5039L46.8597 69.7008L46.9238 69.2592L46.4756 69.1941L46.6661 67.8825L48.782 68.1899L48.5913 69.5014L48.1432 69.4363L48.079 69.878L49.4347 70.0749L49.4987 69.6333L49.0573 69.5692L49.4983 66.5328L49.9399 66.597L50.0042 66.1554L48.6484 65.9584L48.5844 66.4001L49.0325 66.4652L48.8461 67.7482L46.7304 67.4408L46.9168 66.1578L47.365 66.2227L47.4292 65.7813L46.0737 65.5844L46.0095 66.0258L46.4533 66.0905L46.0121 69.1267L45.5683 69.0622L45.504 69.5039ZM50.0048 70.06L51.3742 70.0243L51.3626 69.5782L50.9098 69.59L50.8297 66.5228L51.2825 66.5109L51.2709 66.0648L49.9016 66.1007L49.9132 66.5468L50.3615 66.535L50.4416 69.6023L49.9932 69.6139L50.0048 70.06ZM51.9128 69.9529L53.2639 69.7269L53.1903 69.2869L52.553 69.3935L52.3355 68.0928L52.5697 68.0536C52.6224 68.0449 52.6623 68.0373 52.69 68.0313C52.7172 68.0237 52.7571 68.0154 52.8095 68.0067L53.923 69.6168L54.7376 69.4807L54.664 69.0404L54.1385 69.1283L53.2902 67.8925C53.5474 67.7879 53.7305 67.6313 53.8396 67.4226C53.9471 67.2124 53.9774 66.968 53.9308 66.6894C53.8992 66.4996 53.8276 66.3456 53.7162 66.2277C53.6047 66.1083 53.4747 66.0166 53.3259 65.9531C53.1789 65.8906 53.0248 65.8527 52.8635 65.8391C52.7022 65.8255 52.5579 65.8295 52.431 65.8507L51.2595 66.0465L51.3331 66.4866L51.585 66.4447L52.0911 69.4707L51.8392 69.5128L51.9128 69.9529ZM52.2608 67.6461L52.0469 66.3673L52.5396 66.285C52.655 66.2658 52.7665 66.2642 52.8742 66.2807C52.982 66.2972 53.0779 66.3278 53.162 66.3722C53.2418 66.4188 53.3098 66.4757 53.3661 66.5428C53.4209 66.6102 53.4551 66.6847 53.4689 66.7666C53.4809 66.8382 53.4803 66.9147 53.4667 66.9965C53.4535 67.0797 53.4209 67.158 53.3687 67.2312C53.3165 67.3043 53.2407 67.3719 53.1414 67.4335C53.042 67.4937 52.9104 67.5374 52.7469 67.5649L52.2608 67.6461ZM56.0956 68.9991L57.3802 68.5236L57.2254 68.1051L56.8381 68.2485L55.773 65.3711L56.5955 65.0666L56.7436 65.4664L57.162 65.3116L56.8591 64.4932L53.9255 65.579L54.2284 66.3974L54.6488 66.2417L54.501 65.8418L55.3338 65.5337L56.3987 68.4111L55.9408 68.5807L56.0956 68.9991ZM61.8136 65.618C61.8426 65.4764 61.8424 65.3323 61.8129 65.1855C61.7835 65.0388 61.7188 64.8965 61.6189 64.7586C61.4574 64.5356 61.2901 64.389 61.117 64.3187C60.945 64.2478 60.7728 64.2282 60.6002 64.2599C60.4113 64.2942 60.2248 64.3444 60.0403 64.4102C59.8547 64.4769 59.6859 64.5215 59.534 64.5438C59.4358 64.5545 59.3448 64.5474 59.261 64.5222C59.1771 64.497 59.1017 64.4383 59.0348 64.346C58.9862 64.2788 58.9505 64.2079 58.9273 64.1334C58.9052 64.0598 58.8969 63.9855 58.9027 63.9099C58.9101 63.8316 58.9364 63.7531 58.9817 63.6746C59.0281 63.5972 59.0972 63.5251 59.1896 63.4582C59.2808 63.3922 59.3716 63.3411 59.4624 63.3047C59.5521 63.2673 59.6344 63.2396 59.7093 63.222L59.9058 63.4934L60.2692 63.2307L59.9437 62.781C59.8251 62.7736 59.7153 62.7783 59.6141 62.7948C59.5137 62.8127 59.4211 62.8377 59.3364 62.8698C59.2525 62.903 59.1769 62.9396 59.1091 62.9795C59.0399 63.0203 58.9779 63.0607 58.9226 63.1006C58.7546 63.2222 58.6313 63.3507 58.5523 63.4865C58.4754 63.6226 58.431 63.7571 58.4194 63.8898C58.4084 64.0236 58.4245 64.1519 58.4676 64.2744C58.5093 64.3977 58.5684 64.5083 58.6449 64.6063C58.7843 64.7938 58.9297 64.9127 59.0807 64.9623C59.2306 65.0127 59.3832 65.0256 59.5387 65.0008C59.6903 64.9805 59.8425 64.9408 59.995 64.8815C60.1476 64.8222 60.2955 64.7753 60.4389 64.7412C60.5339 64.7236 60.6218 64.7149 60.7024 64.7149C60.784 64.7142 60.8676 64.7314 60.9531 64.7662C61.0057 64.7885 61.0561 64.824 61.1045 64.8733C61.1516 64.9232 61.1951 64.9759 61.235 65.031C61.2992 65.1197 61.3389 65.2099 61.3539 65.3011C61.3688 65.3925 61.3653 65.4811 61.3432 65.5665C61.3169 65.6513 61.2754 65.7316 61.2187 65.8074C61.1621 65.883 61.0936 65.9502 61.0133 66.0082C60.8766 66.1072 60.7371 66.1743 60.5946 66.2098C60.4523 66.2453 60.3194 66.2611 60.196 66.2571L59.9005 65.8489L59.5391 66.1105L59.9243 66.6428C60.0082 66.6753 60.1059 66.6932 60.2179 66.6963C60.3285 66.7003 60.4452 66.6898 60.5678 66.6648C60.6903 66.6421 60.8161 66.6039 60.9455 66.5504C61.074 66.4958 61.1964 66.4264 61.3129 66.3423C61.4411 66.2495 61.5486 66.1404 61.6354 66.0155C61.721 65.8915 61.7804 65.759 61.8136 65.618ZM62.578 65.2984L63.5532 64.3366L63.2398 64.0187L62.7799 64.4724L61.8538 63.5336L62.2932 63.1002C62.5671 62.8298 62.7061 62.5515 62.7103 62.2648C62.7123 61.978 62.5927 61.7126 62.3514 61.4679C62.2162 61.3309 62.0692 61.2462 61.9106 61.2138C61.7507 61.1804 61.5917 61.1801 61.4333 61.2136C61.2772 61.247 61.1291 61.3046 60.9894 61.3865C60.8496 61.4681 60.734 61.5542 60.6423 61.6445L59.7967 62.4788L60.1099 62.7964L60.2917 62.6171L62.4464 64.8014L62.2646 64.9808L62.578 65.2984ZM61.5357 63.2113L60.6252 62.288L60.9809 61.9374C61.0641 61.8553 61.1547 61.79 61.2522 61.7413C61.3499 61.6927 61.4458 61.6626 61.5401 61.6508C61.6323 61.643 61.7206 61.6505 61.8054 61.6731C61.889 61.6967 61.9597 61.738 62.0179 61.7969C62.0688 61.8484 62.1123 61.9115 62.1486 61.9862C62.1859 62.0619 62.204 62.1446 62.2033 62.2345C62.2026 62.3246 62.1794 62.4232 62.1339 62.5307C62.0871 62.6371 62.0048 62.7487 61.8868 62.8651L61.5357 63.2113ZM66.1987 59.8527C66.1496 59.5978 66.053 59.3584 65.9087 59.1345C65.7639 58.9083 65.5759 58.7183 65.3441 58.5641C65.1151 58.4116 64.8675 58.3119 64.602 58.2648C64.3373 58.2166 64.0765 58.2182 63.82 58.2697C63.5635 58.3212 63.3217 58.4198 63.0948 58.5659C62.8691 58.7127 62.6802 58.9005 62.5276 59.1296C62.3726 59.3624 62.2718 59.61 62.2251 59.8726C62.179 60.1369 62.1828 60.3956 62.237 60.6484C62.2885 60.9049 62.388 61.1453 62.5354 61.3697C62.6822 61.5955 62.87 61.7844 63.0993 61.937C63.3308 62.0911 63.5786 62.1919 63.8423 62.2394C64.1037 62.2871 64.3616 62.2845 64.6156 62.2314C64.8697 62.1837 65.1086 62.0864 65.3321 61.9403C65.5549 61.7953 65.7439 61.6062 65.8987 61.3733C66.0512 61.1442 66.1523 60.8975 66.2018 60.6336C66.2513 60.3695 66.2502 60.1095 66.1987 59.8527ZM64.5358 61.7784C64.3404 61.8207 64.1412 61.8223 63.938 61.783C63.7339 61.7451 63.5414 61.6657 63.3601 61.5453C63.1776 61.4239 63.0295 61.2765 62.9157 61.1027C62.8011 60.9303 62.7243 60.7452 62.6858 60.5471C62.6434 60.3517 62.64 60.1523 62.6759 59.9484C62.7112 59.7461 62.7886 59.5549 62.9084 59.3749C63.0273 59.1963 63.1734 59.0517 63.3464 58.9413C63.5204 58.8296 63.7065 58.7542 63.9048 58.7154C64.101 58.677 64.3011 58.6768 64.505 58.7149C64.7082 58.7542 64.9009 58.8345 65.0834 58.9558C65.2645 59.0763 65.4124 59.2228 65.527 59.3952C65.6408 59.5688 65.7169 59.7526 65.7548 59.9466C65.7956 60.1445 65.7981 60.3452 65.7619 60.5489C65.7267 60.7512 65.6497 60.9419 65.5308 61.1206C65.4111 61.3004 65.2647 61.4458 65.0916 61.5562C64.9177 61.668 64.7323 61.742 64.5358 61.7784ZM67.5314 58.2909L68.0215 57.0117L67.6048 56.852L67.4571 57.2376L64.5918 56.1402L64.9056 55.3211L65.3035 55.4737L65.4632 55.057L64.6484 54.7448L63.5296 57.6661L64.3442 57.9782L64.5048 57.5593L64.1066 57.4069L64.4243 56.5776L67.2894 57.675L67.1147 58.1312L67.5314 58.2909Z" fill="#272727"/>
<path d="M33.9508 45.6086L34.4125 44.3189L33.9923 44.1686L33.8531 44.5574L30.9645 43.5233L31.2601 42.6975L31.6614 42.8412L31.8117 42.4212L30.9902 42.1272L29.936 45.0722L30.7575 45.3662L30.9086 44.9442L30.5073 44.8003L30.8066 43.9643L33.6954 44.9984L33.5308 45.4583L33.9508 45.6086ZM34.8247 43.3346L35.5559 42.1763L35.1785 41.938L34.9367 42.321L33.8159 41.6137L34.957 39.8056L36.0779 40.5132L35.8361 40.8961L36.2135 41.1344L36.9447 39.976L36.5673 39.7378L36.329 40.1152L33.7344 38.4775L33.9727 38.1001L33.5953 37.8619L32.8641 39.0202L33.2415 39.2585L33.4833 38.8755L34.5796 39.5674L33.4385 41.3755L32.3421 40.6833L32.5839 40.3004L32.2065 40.0621L31.4753 41.2207L31.8528 41.4587L32.0921 41.0795L34.6867 42.7172L34.4473 43.0964L34.8247 43.3346ZM37.0847 39.8772L39.067 37.8503L38.4449 37.2418L38.1329 37.561L38.436 37.8575L37.3154 39.0033L36.3678 38.0767L37.5911 36.8258L37.2719 36.514L36.0486 37.7647L35.1219 36.8579L36.1867 35.7692L36.4914 36.0672L36.8035 35.7482L36.1798 35.1382L34.2533 37.1078L34.5722 37.4198L34.7942 37.193L36.9877 39.3383L36.7658 39.5652L37.0847 39.8772ZM41.2541 36.3799L42.4468 35.7061L42.2273 35.3175L41.8677 35.5207L40.3583 32.8494L41.1218 32.418L41.3315 32.7892L41.7201 32.5697L41.2909 31.81L38.5674 33.3488L38.9966 34.1086L39.3871 33.888L39.1774 33.5168L39.9506 33.0798L41.46 35.7511L41.0346 35.9914L41.2541 36.3799ZM45.2979 34.297C45.3663 34.1697 45.4074 34.0314 45.421 33.8824C45.4348 33.7334 45.4136 33.5786 45.3574 33.4178C45.2664 33.1579 45.1482 32.9696 45.0023 32.853C44.8578 32.7357 44.6983 32.6676 44.5239 32.6484C44.3332 32.6275 44.14 32.6221 43.9444 32.6324C43.7474 32.6433 43.573 32.6377 43.4211 32.6154C43.3238 32.5978 43.2386 32.5648 43.1655 32.5168C43.0921 32.4687 43.0368 32.3908 42.9991 32.2833C42.9718 32.205 42.9578 32.1269 42.9571 32.0486C42.9569 31.9719 42.9703 31.8983 42.9973 31.8276C43.0267 31.7547 43.0745 31.6871 43.1405 31.6246C43.2069 31.5637 43.2939 31.5146 43.4017 31.4769C43.5078 31.4399 43.6096 31.4167 43.7066 31.4078C43.8034 31.3975 43.8902 31.3946 43.9671 31.3991L44.0778 31.7156L44.5011 31.5675L44.3178 31.0436C44.2062 31.0027 44.0996 30.9757 43.9979 30.9626C43.8966 30.951 43.8009 30.9485 43.7106 30.955C43.6207 30.9628 43.5377 30.9762 43.4612 30.9951C43.3834 31.0146 43.3122 31.0355 43.248 31.0578C43.0524 31.1263 42.8973 31.2142 42.7829 31.3217C42.6703 31.4301 42.5893 31.5461 42.54 31.6701C42.4914 31.7952 42.47 31.9226 42.4762 32.0522C42.4809 32.1822 42.5059 32.3052 42.5512 32.4211C42.631 32.6409 42.7363 32.7961 42.8668 32.8869C42.9959 32.9781 43.1387 33.0341 43.2948 33.0548C43.4458 33.0787 43.6029 33.0843 43.7661 33.0711C43.9294 33.058 44.0844 33.0555 44.2317 33.0635C44.3276 33.0738 44.4143 33.0905 44.4913 33.1137C44.5698 33.1365 44.6452 33.1769 44.717 33.2348C44.7612 33.2712 44.7993 33.3196 44.8317 33.3805C44.8625 33.4418 44.8892 33.5047 44.9115 33.569C44.9477 33.6723 44.9599 33.77 44.9481 33.8619C44.9365 33.9538 44.9077 34.0376 44.862 34.1132C44.8125 34.1868 44.7498 34.252 44.6738 34.3082C44.5979 34.3646 44.5132 34.4092 44.4195 34.442C44.2602 34.4976 44.1074 34.5221 43.9607 34.5154C43.8141 34.5085 43.6823 34.4857 43.5652 34.4467L43.3988 33.9709L42.9774 34.1184L43.1945 34.7387C43.2654 34.7938 43.3542 34.8388 43.4603 34.8736C43.5654 34.9091 43.68 34.9325 43.8047 34.9439C43.9285 34.9571 44.0601 34.9564 44.1993 34.9423C44.3383 34.9267 44.4752 34.8951 44.6109 34.8478C44.7603 34.7956 44.8946 34.722 45.0135 34.6269C45.131 34.5326 45.2258 34.4226 45.2979 34.297ZM45.8089 34.4191L47.1644 34.2221L47.1004 33.7807L46.652 33.8458L46.4615 32.534L48.5772 32.2266L48.7679 33.5382L48.3196 33.6033L48.3838 34.045L49.7394 33.848L49.6753 33.4064L49.2337 33.4706L48.7925 30.4344L49.2341 30.3701L49.1699 29.9285L47.8144 30.1255L47.8786 30.5671L48.3267 30.502L48.5132 31.785L46.3973 32.0924L46.2111 30.8093L46.6592 30.7442L46.5949 30.3026L45.2394 30.4995L45.3037 30.9412L45.7473 30.8767L46.1885 33.9132L45.7446 33.9776L45.8089 34.4191ZM49.9492 33.8842L51.3186 33.9201L51.3302 33.474L50.8774 33.4621L50.9575 30.3949L51.4103 30.4067L51.4219 29.9606L50.0525 29.9249L50.0409 30.371L50.4893 30.3826L50.4092 33.4499L49.9608 33.4383L49.9492 33.8842ZM51.5626 33.9629L52.9137 34.1889L52.9873 33.7488L52.35 33.6421L52.5675 32.3415L52.8019 32.3808C52.8543 32.3895 52.8947 32.3955 52.9226 32.3986C52.9509 32.4004 52.9913 32.4055 53.0439 32.4144L53.5728 34.299L54.3874 34.4353L54.461 33.9952L53.9355 33.9074L53.5355 32.4629C53.8126 32.4477 54.0367 32.3591 54.2078 32.1972C54.3778 32.0335 54.4862 31.8122 54.5328 31.5334C54.5645 31.3438 54.5469 31.1749 54.4802 31.0273C54.4135 30.878 54.3202 30.7491 54.2002 30.6405C54.0816 30.5336 53.9482 30.4475 53.8001 30.3822C53.652 30.3168 53.5143 30.2738 53.3874 30.2524L52.2159 30.0565L52.1423 30.4966L52.3942 30.5388L51.888 33.565L51.6362 33.5228L51.5626 33.9629ZM52.6422 31.8947L52.8561 30.616L53.3488 30.6985C53.4642 30.7177 53.5701 30.7527 53.6667 30.8033C53.7633 30.854 53.844 30.914 53.9089 30.9833C53.9692 31.0536 54.0151 31.1294 54.0463 31.2113C54.0762 31.2927 54.0843 31.3743 54.0706 31.4562C54.0588 31.5278 54.0332 31.6001 53.9939 31.673C53.9544 31.7473 53.898 31.8106 53.8248 31.8631C53.7515 31.9153 53.658 31.9543 53.544 31.9804C53.4305 32.0049 53.292 32.0034 53.1285 31.9761L52.6422 31.8947ZM55.3588 34.8141L56.6436 35.2894L56.7984 34.871L56.4112 34.7275L57.4763 31.8501L58.2987 32.1546L58.1506 32.5543L58.5692 32.7093L58.8719 31.8909L55.9383 30.8051L55.6354 31.6235L56.0561 31.7792L56.2039 31.3792L57.0368 31.6875L55.9717 34.5649L55.5138 34.3954L55.3588 34.8141ZM60.8609 37.5211C61.0045 37.5046 61.1413 37.4593 61.2715 37.3855C61.4018 37.3116 61.5167 37.2057 61.6166 37.0678C61.7779 36.8448 61.8649 36.64 61.8774 36.4538C61.8912 36.2682 61.856 36.0982 61.7721 35.9443C61.6804 35.7757 61.5745 35.614 61.4542 35.4594C61.3329 35.3039 61.2379 35.1576 61.1692 35.0202C61.1283 34.9303 61.1067 34.8415 61.1043 34.7539C61.102 34.6664 61.1341 34.5763 61.2011 34.4842C61.2497 34.417 61.3057 34.3608 61.3695 34.3156C61.4324 34.2716 61.5006 34.2406 61.574 34.2223C61.6507 34.2049 61.7335 34.2054 61.8223 34.2239C61.9104 34.2437 62.0005 34.287 62.0928 34.3539C62.1838 34.4199 62.2608 34.4902 62.3237 34.5649C62.3875 34.6385 62.4395 34.7081 62.4796 34.7737L62.2829 35.0452L62.6462 35.3082L62.9717 34.8587C62.9416 34.7436 62.903 34.6408 62.8555 34.5498C62.8071 34.4599 62.7546 34.3798 62.6978 34.3095C62.64 34.2402 62.5816 34.1797 62.5222 34.1277C62.462 34.0749 62.4042 34.0285 62.3489 33.9886C62.1812 33.867 62.0203 33.79 61.8669 33.7572C61.7134 33.7267 61.572 33.7267 61.4422 33.757C61.3117 33.7885 61.1948 33.8438 61.092 33.9228C60.9878 34.001 60.9013 34.0916 60.8319 34.1951C60.6972 34.3863 60.6298 34.5614 60.6298 34.7202C60.6287 34.8783 60.6644 35.0273 60.7364 35.1674C60.8031 35.305 60.8883 35.4373 60.9923 35.5635C61.0964 35.69 61.187 35.816 61.2644 35.9414C61.3108 36.0262 61.3465 36.1069 61.3715 36.1834C61.3976 36.2608 61.4076 36.3456 61.4011 36.4377C61.3965 36.4948 61.3784 36.5537 61.3469 36.615C61.3141 36.6753 61.2778 36.733 61.2379 36.7883C61.1736 36.8769 61.1005 36.9427 61.0184 36.9855C60.9361 37.0284 60.8511 37.0527 60.7628 37.0582C60.674 37.0598 60.5848 37.0455 60.4953 37.0154C60.4056 36.9853 60.3207 36.9411 60.2404 36.8829C60.1036 36.7839 59.9961 36.6724 59.918 36.5481C59.8398 36.4241 59.7833 36.3028 59.7483 36.1843L60.0438 35.7761L59.6823 35.5145L59.2971 36.0467C59.2924 36.1366 59.306 36.2349 59.3381 36.3422C59.3689 36.4486 59.4153 36.5561 59.4773 36.665C59.5371 36.7741 59.6127 36.8818 59.7039 36.988C59.7958 37.093 59.9002 37.1876 60.0164 37.2717C60.1447 37.3645 60.2819 37.4328 60.4275 37.4763C60.5723 37.5186 60.7166 37.5338 60.8609 37.5211ZM61.0877 38.0354L62.063 38.9973L62.3763 38.6796L61.9164 38.2259L62.8425 37.2871L63.2819 37.7205C63.5559 37.9906 63.8362 38.1258 64.1231 38.126C64.4097 38.124 64.6738 38.0009 64.9149 37.7564C65.0499 37.6195 65.1326 37.4713 65.163 37.3119C65.1944 37.1517 65.1922 36.9924 65.1565 36.8347C65.121 36.679 65.0615 36.5318 64.9778 36.3933C64.8942 36.2546 64.8065 36.1401 64.7149 36.0498L63.8693 35.2156L63.5559 35.5332L63.7376 35.7125L61.5829 37.8969L61.4011 37.7176L61.0877 38.0354ZM63.1606 36.9646L64.0711 36.0416L64.4267 36.3924C64.5099 36.4745 64.5766 36.564 64.6263 36.661C64.6763 36.758 64.7077 36.8535 64.7209 36.9476C64.73 37.0397 64.7238 37.1281 64.7024 37.213C64.6798 37.2969 64.6395 37.3685 64.5815 37.4274C64.5304 37.4791 64.4679 37.5235 64.3939 37.5606C64.3187 37.5987 64.2362 37.6181 64.1463 37.6188C64.0562 37.6195 63.9571 37.5976 63.8492 37.5534C63.7421 37.5079 63.6295 37.4272 63.5115 37.3107L63.1606 36.9646ZM65.3452 42.5385C65.5993 42.5916 65.8573 42.5949 66.1197 42.5483C66.3842 42.5021 66.6322 42.402 66.8638 42.2479C67.0931 42.0953 67.2804 41.9055 67.4263 41.6786C67.5731 41.4529 67.6723 41.212 67.7239 40.9555C67.7754 40.699 67.7776 40.4378 67.7306 40.1721C67.6824 39.9073 67.582 39.6604 67.4294 39.4311C67.2744 39.1982 67.0848 39.0098 66.8609 38.8654C66.6349 38.7207 66.3947 38.6245 66.1406 38.5768C65.8841 38.5253 65.624 38.5242 65.3599 38.5737C65.0952 38.6219 64.848 38.7222 64.6189 38.8748C64.3874 39.0289 64.1987 39.2185 64.0533 39.4434C63.9081 39.666 63.811 39.9049 63.762 40.1598C63.708 40.4126 63.7053 40.6704 63.7542 40.9332C63.8019 41.1946 63.9034 41.442 64.0582 41.6748C64.2108 41.9039 64.3992 42.0924 64.6236 42.2398C64.848 42.3875 65.0887 42.487 65.3452 42.5385ZM64.2108 40.2611C64.2471 40.0646 64.3225 39.8801 64.4374 39.7077C64.5511 39.5342 64.6986 39.3872 64.8797 39.2665C65.0622 39.1452 65.2553 39.0655 65.4594 39.0276C65.6626 38.9883 65.8631 38.989 66.061 39.0298C66.2575 39.0662 66.4429 39.1402 66.6169 39.252C66.7899 39.3624 66.9363 39.5078 67.056 39.6876C67.1749 39.8663 67.2519 40.0568 67.2871 40.2593C67.323 40.463 67.3206 40.6635 67.28 40.8613C67.2396 41.0572 67.1624 41.2419 67.0485 41.4154C66.9338 41.5878 66.7855 41.7346 66.603 41.8559C66.4219 41.9764 66.2296 42.0565 66.0264 42.0957C65.8225 42.1336 65.6236 42.1328 65.4297 42.0926C65.2317 42.054 65.0454 41.9786 64.8714 41.8669C64.6984 41.7562 64.5522 41.6117 64.4334 41.433C64.3138 41.2533 64.2362 41.0621 64.2012 40.8596C64.1652 40.6559 64.1684 40.4565 64.2108 40.2611ZM65.55 44.2915L66.04 45.5707L66.4567 45.411L66.309 45.0253L69.1742 43.9279L69.4878 44.7467L69.0896 44.8993L69.2494 45.316L70.0642 45.0039L68.9451 42.0828L68.1305 42.3948L68.2909 42.8135L68.6888 42.6612L69.0067 43.4905L66.1413 44.5879L65.9666 44.1318L65.55 44.2915Z" fill="#272727"/>
<path d="M31.5522 50.9118C31.5522 50.6582 31.7579 50.4525 32.0113 50.4525C32.2649 50.4525 32.4706 50.6582 32.4706 50.9118C32.4706 51.1654 32.2649 51.3711 32.0113 51.3708C31.7577 51.3708 31.552 51.1652 31.5522 50.9118ZM67.5188 50.9118C67.5188 50.6582 67.7245 50.4525 67.9779 50.4525C68.2315 50.4525 68.4372 50.6582 68.4372 50.9118C68.4372 51.1654 68.2315 51.3711 67.9779 51.3708C67.7243 51.3708 67.5186 51.1652 67.5188 50.9118Z" fill="#272727"/>
</svg>
