<svg width="100" height="102" viewBox="0 0 100 102" fill="none" xmlns="http://www.w3.org/2000/svg">
<g clip-path="url(#clip0_922_5172)">
<g clip-path="url(#clip1_922_5172)">
<g clip-path="url(#clip2_922_5172)">
<g clip-path="url(#clip3_922_5172)">
<g clip-path="url(#clip4_922_5172)">
<g clip-path="url(#clip5_922_5172)">
<g clip-path="url(#clip6_922_5172)">
<g clip-path="url(#clip7_922_5172)">
<g clip-path="url(#clip8_922_5172)">
<g clip-path="url(#clip9_922_5172)">
<g clip-path="url(#clip10_922_5172)">
<path d="M11.9327 53.5881V49.3711H10.0386V48.4583H14.8672V49.3711H12.9731V53.5881H11.9327ZM15.9722 53.5881V48.4583H17.0127V49.7972H20.2026V48.4583H21.2458V53.5881H20.2026V50.6871H17.0127V53.5881H15.9722ZM22.703 53.5881V48.4583H27.0719V49.3711H23.7435V50.3954H26.6901V51.2517H23.7435V52.6794H27.1404V53.5881H22.703ZM32.0726 53.5881V49.3711H30.1785V48.4583H35.0058V49.3711H33.1131V53.5881H32.0726ZM35.8003 52.9052L36.3555 52.0623C36.541 52.1672 36.7296 52.2617 36.9214 52.346C37.1123 52.4302 37.3108 52.5015 37.5169 52.5597C37.7221 52.6171 37.9381 52.661 38.1648 52.6915C38.3916 52.7228 38.6327 52.7385 38.8881 52.7385C39.1973 52.7385 39.4598 52.7183 39.6758 52.678C39.8927 52.6368 40.0697 52.5808 40.2068 52.51C40.343 52.4392 40.4425 52.3545 40.5052 52.2559C40.5671 52.1573 40.598 52.0502 40.598 51.9346C40.598 51.7482 40.5205 51.6008 40.3654 51.4924C40.2104 51.3839 39.9707 51.3297 39.6462 51.3297C39.5046 51.3297 39.355 51.3391 39.1973 51.3579C39.0395 51.3767 38.8804 51.3969 38.72 51.4184C38.5587 51.4408 38.4001 51.461 38.2442 51.4789C38.0873 51.4977 37.9399 51.5071 37.8019 51.5071C37.5725 51.5071 37.352 51.4776 37.1405 51.4184C36.9299 51.3593 36.7431 51.2706 36.5799 51.1523C36.4168 51.0349 36.2873 50.8874 36.1915 50.71C36.0947 50.5325 36.0463 50.3255 36.0463 50.0889C36.0463 49.9491 36.0655 49.8102 36.1041 49.6722C36.1426 49.5351 36.204 49.4034 36.2882 49.277C36.3725 49.1515 36.4809 49.0346 36.6136 48.9261C36.7471 48.8177 36.9088 48.724 37.0988 48.6452C37.2879 48.5663 37.5066 48.5045 37.7548 48.4597C38.0031 48.4149 38.2858 48.3925 38.6031 48.3925C38.8325 48.3925 39.0633 48.405 39.2954 48.4301C39.5275 48.4552 39.7533 48.491 39.9729 48.5376C40.1934 48.5833 40.4053 48.6385 40.6087 48.703C40.8122 48.7675 41.0013 48.8392 41.176 48.9181L40.7203 49.7582C40.576 49.6946 40.4205 49.6359 40.2539 49.5821C40.0872 49.5284 39.9133 49.4822 39.7323 49.4437C39.5503 49.4042 39.3626 49.3729 39.169 49.3496C38.9754 49.3263 38.7778 49.3146 38.5762 49.3146C38.2903 49.3146 38.0546 49.3357 37.8691 49.3778C37.6845 49.419 37.5375 49.4719 37.4282 49.5364C37.3188 49.601 37.2427 49.6731 37.1997 49.7529C37.1575 49.8326 37.1365 49.9119 37.1365 49.9908C37.1365 50.144 37.205 50.2695 37.3421 50.3672C37.4802 50.464 37.6903 50.5124 37.9726 50.5124C38.0864 50.5124 38.2173 50.5043 38.3651 50.4882C38.513 50.4721 38.6685 50.4541 38.8316 50.4344C38.9947 50.4147 39.161 50.3968 39.3303 50.3806C39.4997 50.3636 39.6642 50.3551 39.8237 50.3551C40.1257 50.3551 40.3932 50.3892 40.6262 50.4573C40.8592 50.5254 41.0546 50.6222 41.2123 50.7476C41.37 50.8731 41.4892 51.025 41.5699 51.2033C41.6506 51.3817 41.6909 51.5815 41.6909 51.8029C41.6909 52.0977 41.6228 52.3608 41.4866 52.592C41.3494 52.8232 41.1545 53.0181 40.9018 53.1767C40.6491 53.3354 40.3444 53.4554 39.9877 53.537C39.631 53.6194 39.234 53.6607 38.7967 53.6607C38.5081 53.6607 38.2258 53.6423 37.9498 53.6056C37.6737 53.5697 37.4098 53.5186 37.158 53.4523C36.9053 53.3851 36.6642 53.3049 36.4348 53.2117C36.2062 53.1194 35.9947 53.0172 35.8003 52.9052ZM42.8335 53.5881V48.4583H43.874V49.7972H47.064V48.4583H48.1071V53.5881H47.064V50.6871H43.874V53.5881H42.8335ZM49.4326 53.5881V48.4583H50.4798V53.5881H49.4326ZM51.8052 53.5881V48.4583H54.4144C54.8079 48.4583 55.1493 48.4996 55.4388 48.582C55.7274 48.6636 55.9666 48.7823 56.1566 48.9382C56.3475 49.0933 56.4891 49.2824 56.5814 49.5055C56.6746 49.7287 56.7212 49.9814 56.7212 50.2637C56.7212 50.4537 56.6984 50.6347 56.6527 50.8068C56.607 50.9788 56.5362 51.137 56.4403 51.2813C56.3453 51.4256 56.2256 51.5542 56.0813 51.6671C55.9371 51.7791 55.7677 51.8723 55.5732 51.9467L56.689 53.5881H55.4159L54.4507 52.1309H54.4212L52.8457 52.1282V53.5881H51.8052ZM52.8457 51.2289H54.44C54.6371 51.2289 54.8097 51.2056 54.9575 51.159C55.1054 51.1133 55.2291 51.0487 55.3286 50.9654C55.428 50.883 55.5024 50.7817 55.5517 50.6616C55.601 50.5424 55.6256 50.4098 55.6256 50.2637C55.6256 49.9769 55.5271 49.7551 55.3299 49.5983C55.1327 49.4423 54.8361 49.3644 54.44 49.3644H52.8457V51.2289ZM59.4972 53.5881V49.3711H57.6044V48.4583H62.4317V49.3711H60.5376V53.5881H59.4972ZM65.4563 52.9052L66.0115 52.0623C66.1979 52.1672 66.3866 52.2617 66.5775 52.346C66.7692 52.4302 66.9677 52.5015 67.173 52.5597C67.3791 52.6171 67.5955 52.661 67.8223 52.6915C68.0481 52.7228 68.2892 52.7385 68.5455 52.7385C68.8538 52.7385 69.1163 52.7183 69.3332 52.678C69.5492 52.6368 69.7257 52.5808 69.8629 52.51C70 52.4392 70.0995 52.3545 70.1613 52.2559C70.224 52.1573 70.2554 52.0502 70.2554 51.9346C70.2554 51.7482 70.1774 51.6008 70.0215 51.4924C69.8664 51.3839 69.6272 51.3297 69.3036 51.3297C69.1612 51.3297 69.011 51.3391 68.8533 51.3579C68.6965 51.3767 68.5374 51.3969 68.3761 51.4184C68.2157 51.4408 68.0571 51.461 67.9002 51.4789C67.7443 51.4977 67.5973 51.5071 67.4593 51.5071C67.229 51.5071 67.0085 51.4776 66.7979 51.4184C66.5864 51.3593 66.3991 51.2706 66.236 51.1523C66.0729 51.0349 65.9434 50.8874 65.8475 50.71C65.7516 50.5325 65.7037 50.3255 65.7037 50.0889C65.7037 49.9491 65.7225 49.8102 65.7601 49.6722C65.7987 49.5351 65.8601 49.4034 65.9443 49.277C66.0285 49.1515 66.1374 49.0346 66.271 48.9261C66.4045 48.8177 66.5658 48.724 66.7549 48.6452C66.944 48.5663 67.1627 48.5045 67.4109 48.4597C67.6591 48.4149 67.9419 48.3925 68.2591 48.3925C68.4895 48.3925 68.7207 48.405 68.9528 48.4301C69.184 48.4552 69.4098 48.491 69.6303 48.5376C69.8499 48.5833 70.0614 48.6385 70.2648 48.703C70.4682 48.7675 70.6578 48.8392 70.8334 48.9181L70.3764 49.7582C70.2321 49.6946 70.0766 49.6359 69.9099 49.5821C69.7441 49.5284 69.5703 49.4822 69.3883 49.4437C69.2073 49.4042 69.02 49.3729 68.8264 49.3496C68.6328 49.3263 68.4352 49.3146 68.2336 49.3146C67.9468 49.3146 67.7111 49.3357 67.5265 49.3778C67.341 49.419 67.1936 49.4719 67.0842 49.5364C66.9749 49.601 66.8992 49.6731 66.8571 49.7529C66.814 49.8326 66.7925 49.9119 66.7925 49.9908C66.7925 50.144 66.8615 50.2695 66.9996 50.3672C67.1376 50.464 67.3477 50.5124 67.63 50.5124C67.7438 50.5124 67.8742 50.5043 68.0212 50.4882C68.1691 50.4721 68.3246 50.4541 68.4877 50.4344C68.6508 50.4147 68.817 50.3968 68.9864 50.3806C69.1558 50.3636 69.3207 50.3551 69.4811 50.3551C69.7831 50.3551 70.0506 50.3892 70.2836 50.4573C70.5166 50.5254 70.7115 50.6222 70.8684 50.7476C71.0261 50.8731 71.1453 51.025 71.226 51.2033C71.3075 51.3817 71.3483 51.5815 71.3483 51.8029C71.3483 52.0977 71.2797 52.3608 71.1426 52.592C71.0064 52.8232 70.8119 53.0181 70.5592 53.1767C70.3065 53.3354 70.0018 53.4554 69.6451 53.537C69.2884 53.6194 68.8909 53.6607 68.4527 53.6607C68.1641 53.6607 67.8823 53.6423 67.6072 53.6056C67.3311 53.5697 67.0668 53.5186 66.814 53.4523C66.5613 53.3851 66.3207 53.3049 66.0922 53.2117C65.8636 53.1194 65.6517 53.0172 65.4563 52.9052ZM72.4936 53.5881V48.4583H75.1969C75.5913 48.4583 75.9327 48.5009 76.2213 48.586C76.5099 48.6721 76.7496 48.7953 76.9405 48.9557C77.1305 49.1161 77.2721 49.3124 77.3653 49.5445C77.4585 49.7766 77.5051 50.0383 77.5051 50.3296C77.5051 50.6029 77.4589 50.8556 77.3666 51.0877C77.2752 51.3189 77.1345 51.5197 76.9445 51.69C76.7554 51.8593 76.5166 51.9915 76.228 52.0865C75.9394 52.1815 75.598 52.229 75.2037 52.229L73.5341 52.2263V53.5881H72.4936ZM73.5341 51.327H75.2238C75.421 51.327 75.5931 51.3033 75.74 51.2558C75.8879 51.2092 76.0116 51.1424 76.1111 51.0555C76.2105 50.9694 76.2849 50.8646 76.3342 50.7409C76.3835 50.6172 76.4081 50.4801 76.4081 50.3296C76.4081 50.0249 76.3091 49.7878 76.1111 49.6184C75.913 49.4491 75.6173 49.3644 75.2238 49.3644H73.5341V51.327ZM78.3385 51.0084C78.3385 50.6213 78.4093 50.2668 78.5509 49.9451C78.6934 49.6234 78.8932 49.3473 79.1505 49.117C79.4077 48.8858 79.716 48.7066 80.0753 48.5793C80.4356 48.453 80.8344 48.3898 81.2717 48.3898C81.7073 48.3898 82.1056 48.453 82.4668 48.5793C82.8279 48.7066 83.1367 48.8858 83.393 49.117C83.6502 49.3473 83.85 49.6234 83.9925 49.9451C84.135 50.2668 84.2063 50.6213 84.2063 51.0084C84.2063 51.3983 84.135 51.7554 83.9925 52.0798C83.85 52.4051 83.6502 52.6847 83.393 52.9186C83.1367 53.1525 82.8279 53.3345 82.4668 53.4644C82.1056 53.5953 81.7073 53.6607 81.2717 53.6607C80.8344 53.6607 80.4356 53.5953 80.0753 53.4644C79.716 53.3345 79.4077 53.1525 79.1505 52.9186C78.8932 52.6847 78.6934 52.4051 78.5509 52.0798C78.4093 51.7554 78.3385 51.3983 78.3385 51.0084ZM79.3776 51.0084C79.3776 51.2728 79.4256 51.5112 79.5215 51.7236C79.6165 51.936 79.7487 52.117 79.918 52.2667C80.0874 52.4172 80.2877 52.5328 80.5189 52.6135C80.7492 52.6941 81.0002 52.7345 81.2717 52.7345C81.5433 52.7345 81.7942 52.6941 82.0245 52.6135C82.2557 52.5328 82.4556 52.4172 82.6241 52.2667C82.7925 52.117 82.9247 51.936 83.0206 51.7236C83.1174 51.5112 83.1658 51.2728 83.1658 51.0084C83.1658 50.744 83.1174 50.5066 83.0206 50.296C82.9247 50.0862 82.7925 49.9088 82.6241 49.7636C82.4556 49.6175 82.2557 49.5064 82.0245 49.4302C81.7942 49.3532 81.5433 49.3146 81.2717 49.3146C81.0002 49.3146 80.7492 49.3532 80.5189 49.4302C80.2877 49.5064 80.0874 49.6175 79.918 49.7636C79.7487 49.9088 79.6165 50.0862 79.5215 50.296C79.4256 50.5066 79.3776 50.744 79.3776 51.0084ZM86.9069 53.5881V49.3711H85.0128V48.4583H89.8401V49.3711H87.9474V53.5881H86.9069Z" fill="#272727"/>
</g>
</g>
</g>
</g>
</g>
</g>
</g>
</g>
</g>
</g>
</g>
<path fill-rule="evenodd" clip-rule="evenodd" d="M26.0117 26.1658L36.772 81.9482L33.0592 44.6122L51.4088 43.4159L51.3747 37.167L58.6163 20.1022L51.7073 31.4688L26.0117 26.1658Z" fill="#272727"/>
<path fill-rule="evenodd" clip-rule="evenodd" d="M55.3537 53.96L58.6163 20.1066L53.0901 45.2186L40.6896 45.8793L41.6823 58.8172L36.772 81.9482L44.3955 56.7205L55.3537 53.96Z" fill="#272727"/>
<path fill-rule="evenodd" clip-rule="evenodd" d="M57.5104 61.9482L57.8575 55.3389L47.7542 57.7132L47.734 65.1723L36.772 81.9481L50.48 64.4869L57.5104 61.9482Z" fill="#272727"/>
<path fill-rule="evenodd" clip-rule="evenodd" d="M59.3511 58.9209L68.7349 55.9295L69.689 48.0057L59.6362 49.3303L59.3511 58.9209Z" fill="#272727"/>
<path fill-rule="evenodd" clip-rule="evenodd" d="M63.3716 47.608L70.3192 46.712L71.3189 40.2134L66.2106 39.9775L58.6162 20.1022L63.9464 39.6822L63.3716 47.608Z" fill="#272727"/>
<path fill-rule="evenodd" clip-rule="evenodd" d="M73.0728 39.2567L73.867 33.2462L67.8324 31.5428L58.6162 20.1022L67.7736 34.2888L67.5068 38.7148L73.0728 39.2567Z" fill="#272727"/>
<defs>
<clipPath id="clip0_922_5172">
<rect width="100" height="62.3" fill="white" transform="translate(0 19.85)"/>
</clipPath>
<clipPath id="clip1_922_5172">
<rect width="100" height="62.3" fill="white" transform="translate(-0.0605469 19.8752)"/>
</clipPath>
<clipPath id="clip2_922_5172">
<rect width="99.7607" height="62.3504" fill="white" transform="translate(0.059082 19.85)"/>
</clipPath>
<clipPath id="clip3_922_5172">
<rect width="99.7607" height="62.3504" fill="white" transform="translate(0.059082 19.85)"/>
</clipPath>
<clipPath id="clip4_922_5172">
<rect width="79.8086" height="5.2709" fill="white" transform="translate(10.0352 48.3898)"/>
</clipPath>
<clipPath id="clip5_922_5172">
<rect width="79.8086" height="5.2709" fill="white" transform="translate(10.0352 48.3898)"/>
</clipPath>
<clipPath id="clip6_922_5172">
<rect width="79.8086" height="5.2709" fill="white" transform="translate(10.0352 48.3898)"/>
</clipPath>
<clipPath id="clip7_922_5172">
<rect width="79.8086" height="5.2709" fill="white" transform="translate(10.0352 48.3898)"/>
</clipPath>
<clipPath id="clip8_922_5172">
<rect width="79.8086" height="5.2709" fill="white" transform="translate(10.0352 48.3898)"/>
</clipPath>
<clipPath id="clip9_922_5172">
<rect width="79.8086" height="5.2709" fill="white" transform="translate(10.0352 48.3898)"/>
</clipPath>
<clipPath id="clip10_922_5172">
<rect width="79.8086" height="5.2709" fill="white" transform="translate(10.0352 48.3898)"/>
</clipPath>
</defs>
</svg>
