<svg width="100" height="100" viewBox="0 0 100 100" fill="none" xmlns="http://www.w3.org/2000/svg">
<path d="M13.9414 81.2004L20.6009 69.6656H79.278L85.9375 81.2004H13.9414ZM49.9395 18.85L56.599 30.3848H43.2799L49.9395 18.85Z" fill="#272727"/>
<path d="M39.9255 36.6847C39.9255 36.3045 39.752 35.9963 39.5379 35.9963C39.3239 35.9963 39.1504 36.3045 39.1504 36.6847V63.3656C39.1504 63.7458 39.3239 64.054 39.5379 64.054C39.752 64.054 39.9255 63.7458 39.9255 63.3656V36.6847Z" fill="#272727"/>
<path d="M49.1149 36.4574V38.4727H46.6965V44.8743H44.3848V38.4727H41.9546V36.4574H49.1149ZM55.0897 36.4574H57.4014V44.8743H55.0897V41.5787H52.2683V44.8743H49.9566V36.4574H52.2683V39.5634H55.0897V36.4574ZM61.1594 42.859H64.8463V44.8743H58.8477V36.4574H64.7396V38.4727H61.1594V39.6582H64.2179V41.5313H61.1594V42.859Z" fill="#272727"/>
<path d="M49.1149 45.7634V47.7787H46.6965V54.1803H44.3848V47.7787H41.9546V45.7634H49.1149ZM56.05 46.6051L55.0542 48.5137C55.0542 48.5137 54.9871 48.4741 54.8526 48.3952C54.7182 48.3162 54.5404 48.2268 54.3192 48.1272C54.098 48.0293 53.8568 47.9406 53.596 47.8617C53.3352 47.7827 53.0784 47.7431 52.8255 47.7431C52.628 47.7431 52.4658 47.7747 52.3394 47.838C52.213 47.9013 52.1497 48.008 52.1497 48.1581C52.1497 48.3003 52.213 48.4148 52.3394 48.5019C52.4658 48.5889 52.646 48.6678 52.88 48.7389C53.1123 48.8101 53.3905 48.8971 53.7146 48.9998C54.2362 49.1579 54.6867 49.3395 55.066 49.5451C55.4454 49.7506 55.7377 50.0129 55.9433 50.3322C56.1488 50.653 56.2515 51.0784 56.2515 51.6078C56.2515 52.1135 56.1607 52.5379 55.9788 52.881C55.797 53.2255 55.5521 53.5006 55.2438 53.7061C54.9356 53.9117 54.5918 54.0594 54.2125 54.1495C53.8331 54.2412 53.4459 54.287 53.0507 54.287C52.6476 54.287 52.2273 54.245 51.7894 54.1613C51.35 54.0791 50.9247 53.9646 50.5138 53.8176C50.1029 53.6722 49.7273 53.5006 49.3876 53.3031L50.3834 51.2759C50.3834 51.2759 50.4623 51.3233 50.6205 51.4181C50.7786 51.513 50.988 51.6197 51.2488 51.7382C51.5096 51.8568 51.8005 51.9635 52.1213 52.0583C52.4407 52.1531 52.7622 52.2006 53.0863 52.2006C53.3392 52.2006 53.5154 52.1667 53.615 52.0986C53.7129 52.0322 53.762 51.9438 53.762 51.8331C53.762 51.6671 53.675 51.5383 53.5012 51.4466C53.3274 51.3565 53.1005 51.2695 52.8207 51.1858C52.5393 51.1035 52.2287 51.0073 51.8889 50.8965C51.3989 50.7306 50.9958 50.5425 50.6797 50.3322C50.3637 50.1236 50.1304 49.8746 49.9803 49.5854C49.8302 49.2978 49.7551 48.9483 49.7551 48.5374C49.7551 47.9131 49.9014 47.3915 50.1937 46.9726C50.486 46.5536 50.8718 46.2352 51.3507 46.0171C51.828 45.8006 52.3434 45.6923 52.8966 45.6923C53.3075 45.6923 53.7051 45.7413 54.0892 45.8393C54.4716 45.9388 54.8313 46.0598 55.168 46.202C55.503 46.3443 55.797 46.4787 56.05 46.6051ZM62.4042 45.7634H64.7158V54.1803H62.4042V50.8847H59.5827V54.1803H57.271V45.7634H59.5827V48.8694H62.4042V45.7634ZM68.4738 54.1803H66.1621V45.7634H68.4738V54.1803ZM72.2318 54.1803H69.9201V45.7634H73.7848C74.1957 45.7634 74.575 45.8464 74.9229 46.0123C75.2707 46.1783 75.5708 46.4012 75.8238 46.681C76.0768 46.9624 76.2726 47.2768 76.4118 47.6246C76.5493 47.9724 76.6181 48.324 76.6181 48.6797C76.6181 49.0038 76.5707 49.3158 76.4758 49.6162C76.381 49.9166 76.2428 50.1907 76.0609 50.4389C75.8791 50.6886 75.6619 50.9044 75.4089 51.0862L77.1871 54.1803H74.6502L73.1683 51.596H72.2318V54.1803ZM72.2318 47.7787V49.5806H73.69C73.7848 49.5806 73.8756 49.5451 73.9626 49.4739C74.0496 49.4028 74.1231 49.3002 74.1831 49.1657C74.2417 49.0313 74.2708 48.8694 74.2708 48.6797C74.2708 48.4822 74.2376 48.3176 74.1713 48.1865C74.1032 48.0568 74.0202 47.9565 73.9223 47.8854C73.8227 47.8143 73.7255 47.7787 73.6307 47.7787H72.2318ZM84.3593 45.7634V47.7787H81.9409V54.1803H79.6292V47.7787H77.199V45.7634H84.3593Z" fill="#272727"/>
<path d="M48.6526 55.9111L47.6568 57.8197C47.6568 57.8197 47.5897 57.7801 47.4553 57.7012C47.3209 57.6222 47.1431 57.5329 46.9218 57.4333C46.7006 57.3354 46.4595 57.2467 46.1987 57.1677C45.9379 57.0888 45.6811 57.0492 45.4281 57.0492C45.2306 57.0492 45.0685 57.0807 44.9421 57.144C44.8157 57.2073 44.7524 57.314 44.7524 57.4641C44.7524 57.6064 44.8157 57.7209 44.9421 57.8079C45.0685 57.8949 45.2487 57.9739 45.4827 58.045C45.715 58.1161 45.9931 58.2031 46.3172 58.3058C46.8389 58.4639 47.2893 58.6455 47.6687 58.8511C48.048 59.0567 48.3404 59.3189 48.546 59.6383C48.7515 59.9591 48.8542 60.3844 48.8542 60.9138C48.8542 61.4196 48.7634 61.844 48.5815 62.1871C48.3997 62.5316 48.1547 62.8066 47.8465 63.0121C47.5383 63.2177 47.1945 63.3654 46.8151 63.4555C46.4358 63.5473 46.0486 63.593 45.6534 63.593C45.2503 63.593 44.8299 63.5511 44.392 63.4674C43.9527 63.3851 43.5273 63.2706 43.1164 63.1236C42.7056 62.9782 42.33 62.8066 41.9902 62.6091L42.986 60.5819C42.986 60.5819 43.065 60.6293 43.2231 60.7242C43.3813 60.819 43.5906 60.9257 43.8514 61.0443C44.1122 61.1628 44.4032 61.2695 44.724 61.3643C45.0433 61.4592 45.3648 61.5066 45.6889 61.5066C45.9419 61.5066 46.1181 61.4727 46.2177 61.4046C46.3156 61.3382 46.3647 61.2498 46.3647 61.1391C46.3647 60.9731 46.2776 60.8444 46.1039 60.7526C45.9301 60.6625 45.7032 60.5755 45.4234 60.4918C45.142 60.4095 44.8314 60.3133 44.4916 60.2026C44.0015 60.0366 43.5985 59.8486 43.2824 59.6383C42.9664 59.4296 42.7331 59.1807 42.583 58.8914C42.4329 58.6038 42.3577 58.2543 42.3577 57.8434C42.3577 57.2192 42.504 56.6976 42.7964 56.2786C43.0887 55.8597 43.4745 55.5412 43.9534 55.3231C44.4307 55.1066 44.9461 54.9983 45.4993 54.9983C45.9102 54.9983 46.3078 55.0474 46.6919 55.1453C47.0743 55.2449 47.434 55.3658 47.7706 55.508C48.1057 55.6503 48.3997 55.7847 48.6526 55.9111ZM52.1854 63.4863H49.8737V55.0694H53.5013C53.9122 55.0694 54.2915 55.1524 54.6393 55.3184C54.9872 55.4843 55.2873 55.7072 55.5403 55.987C55.7933 56.2684 55.9891 56.5828 56.1283 56.9306C56.2658 57.2784 56.3346 57.6301 56.3346 57.9857C56.3346 58.4836 56.2184 58.9538 55.986 59.3964C55.752 59.8391 55.4282 60.2002 55.0139 60.48C54.5983 60.7614 54.1137 60.902 53.5605 60.902H52.1854V63.4863ZM52.1854 57.0847V58.8867H53.4064C53.5013 58.8867 53.5921 58.8589 53.6791 58.8037C53.7661 58.7484 53.8396 58.6536 53.8996 58.5192C53.9582 58.3847 53.9873 58.2069 53.9873 57.9857C53.9873 57.7486 53.9541 57.5644 53.8877 57.4333C53.8197 57.3036 53.7367 57.2128 53.6388 57.1606C53.5392 57.1101 53.442 57.0847 53.3472 57.0847H52.1854ZM61.0528 63.5575C60.4126 63.5575 59.8317 63.4366 59.3101 63.1947C58.7885 62.9545 58.3404 62.6304 57.9658 62.2226C57.5895 61.8165 57.3012 61.3579 57.1004 60.8475C56.8981 60.3384 56.7969 59.8113 56.7969 59.266C56.7969 58.7048 56.9036 58.1714 57.117 57.6656C57.3304 57.1599 57.6284 56.707 58.0108 56.3071C58.3949 55.9087 58.8495 55.5951 59.3741 55.3658C59.9005 55.1365 60.4759 55.022 61.1002 55.022C61.7404 55.022 62.3213 55.1422 62.8429 55.3824C63.3645 55.6242 63.8109 55.9507 64.1825 56.3616C64.554 56.7725 64.8409 57.2325 65.0431 57.7415C65.2439 58.252 65.3442 58.7759 65.3442 59.3134C65.3442 59.8666 65.2399 60.3963 65.0313 60.902C64.821 61.4077 64.5246 61.8599 64.1422 62.2582C63.7581 62.6582 63.3052 62.9742 62.7836 63.2066C62.262 63.4406 61.6851 63.5575 61.0528 63.5575ZM59.1442 59.2897C59.1442 59.5743 59.1838 59.8486 59.2627 60.1125C59.3417 60.378 59.4602 60.6151 59.6184 60.8238C59.7765 61.0341 59.9764 61.2 60.2182 61.3217C60.4584 61.4449 60.7446 61.5066 61.0765 61.5066C61.4084 61.5066 61.697 61.4433 61.9419 61.3169C62.1868 61.1905 62.3869 61.0182 62.5418 60.8C62.6952 60.5836 62.8097 60.3424 62.8855 60.0769C62.9598 59.813 62.997 59.5427 62.997 59.266C62.997 58.9815 62.9574 58.7088 62.8784 58.448C62.7995 58.1872 62.6809 57.9518 62.5228 57.7415C62.3646 57.5329 62.1631 57.3693 61.9182 57.2507C61.6733 57.1322 61.3888 57.0729 61.0646 57.0729C60.7327 57.0729 60.4458 57.1362 60.204 57.2626C59.9638 57.3889 59.7646 57.5566 59.6065 57.7652C59.4484 57.9755 59.3315 58.2126 59.2556 58.4765C59.1814 58.742 59.1442 59.013 59.1442 59.2897ZM72.7535 55.0694V57.0847H70.3351V63.4863H68.0234V57.0847H65.5932V55.0694H72.7535Z" fill="#272727"/>
<path fill-rule="evenodd" clip-rule="evenodd" d="M15.519 38.8034L20.3764 63.9843L18.7004 47.1303L26.9836 46.5903L26.9682 43.7695L30.2372 36.0662L27.1184 41.1972L15.519 38.8034Z" fill="#272727"/>
<path fill-rule="evenodd" clip-rule="evenodd" d="M28.7645 51.35L30.2373 36.0681L27.7427 47.404L22.1449 47.7023L22.5931 53.5426L20.3765 63.9842L23.8178 52.5961L28.7645 51.35Z" fill="#272727"/>
<path fill-rule="evenodd" clip-rule="evenodd" d="M29.7381 54.9561L29.8948 51.9725L25.334 53.0443L25.3248 56.4114L20.3765 63.9843L26.5644 56.102L29.7381 54.9561Z" fill="#272727"/>
<path fill-rule="evenodd" clip-rule="evenodd" d="M30.5688 53.5895L34.8048 52.2392L35.2355 48.6622L30.6976 49.2602L30.5688 53.5895Z" fill="#272727"/>
<path fill-rule="evenodd" clip-rule="evenodd" d="M32.384 48.4826L35.5202 48.0782L35.9715 45.1446L33.6655 45.0382L30.2373 36.0662L32.6434 44.9049L32.384 48.4826Z" fill="#272727"/>
<path fill-rule="evenodd" clip-rule="evenodd" d="M36.7632 44.7128L37.1217 41.9995L34.3976 41.2306L30.2373 36.0662L34.3711 42.4702L34.2506 44.4682L36.7632 44.7128Z" fill="#272727"/>
</svg>
