<svg width="100" height="100" viewBox="0 0 100 100" fill="none" xmlns="http://www.w3.org/2000/svg">
<path d="M50.0001 79.2858C66.1741 79.2858 79.2858 66.1741 79.2858 50.0001C79.2858 33.826 66.1741 20.7144 50.0001 20.7144C33.826 20.7144 20.7144 33.826 20.7144 50.0001C20.7144 66.1741 33.826 79.2858 50.0001 79.2858Z" fill="#272727"/>
<path fill-rule="evenodd" clip-rule="evenodd" d="M34.0415 33.4202L41.218 70.624L38.7418 45.7229L50.98 44.9251L50.9572 40.7574L55.787 29.3761L51.179 36.957L34.0415 33.4202Z" fill="white"/>
<path fill-rule="evenodd" clip-rule="evenodd" d="M53.6112 51.9574L55.7872 29.379L52.1015 46.1273L43.8311 46.568L44.4932 55.1969L41.2183 70.624L46.3027 53.7985L53.6112 51.9574Z" fill="white"/>
<path fill-rule="evenodd" clip-rule="evenodd" d="M55.0497 57.2852L55.2812 52.8772L48.5428 54.4607L48.5293 59.4355L41.2183 70.6241L50.3608 58.9784L55.0497 57.2852Z" fill="white"/>
<path fill-rule="evenodd" clip-rule="evenodd" d="M56.2769 55.266L62.5353 53.271L63.1717 47.9862L56.467 48.8697L56.2769 55.266Z" fill="white"/>
<path fill-rule="evenodd" clip-rule="evenodd" d="M58.9587 47.721L63.5924 47.1234L64.2591 42.7892L60.8522 42.6319L55.7871 29.3761L59.3421 42.4349L58.9587 47.721Z" fill="white"/>
<path fill-rule="evenodd" clip-rule="evenodd" d="M65.4289 42.1511L65.9585 38.1424L61.9338 37.0064L55.7871 29.3761L61.8946 38.8378L61.7167 41.7897L65.4289 42.1511Z" fill="white"/>
<path d="M5.05127 67.2608L6.20127 70.4736L7.24877 70.0986L6.90163 69.1283L14.0938 66.5536L14.8306 68.6119L13.8331 68.969L14.2081 70.0165L16.2531 69.2844L13.627 61.9483L11.582 62.6804L11.957 63.7279L12.9545 63.3708L13.6995 65.4526L6.50734 68.0272L6.09877 66.8858L5.05127 67.2608ZM7.73484 73.9647L9.55448 76.8476L10.4952 76.2536L9.89377 75.3008L12.6834 73.5397L15.5256 78.0429L12.7363 79.8036L12.1345 78.8508L11.1938 79.4447L13.0152 82.3304L13.9563 81.7365L13.3602 80.7926L19.8202 76.7151L20.4159 77.659L21.357 77.0651L19.5356 74.1794L18.5945 74.7733L19.1959 75.7261L16.4666 77.449L13.6241 72.9461L16.3538 71.2233L16.9552 72.1761L17.8959 71.5822L16.0766 68.6994L15.1356 69.2933L15.7295 70.2344L9.26948 74.3115L8.67556 73.3708L7.73484 73.9647ZM14.0552 83.4501L18.9913 88.4972L20.5416 86.9808L19.7634 86.1854L19.0088 86.9236L16.2202 84.0722L18.5784 81.7658L21.6231 84.879L22.4188 84.1008L19.3738 80.9879L21.6813 78.7311L24.3309 81.4401L23.5738 82.1808L24.3516 82.9761L25.9045 81.4576L21.1073 76.5526L20.312 77.3308L20.8638 77.8947L15.4023 83.2361L14.8506 82.6719L14.0552 83.4501ZM25.6177 93.0654L28.5888 94.7444L29.1363 93.7754L28.2384 93.2683L31.9963 86.6176L33.8998 87.6929L33.3788 88.6151L34.3473 89.1626L35.4159 87.2715L28.6316 83.4387L27.5634 85.3294L28.532 85.8769L29.0531 84.9547L30.9781 86.0422L27.2202 92.6933L26.1648 92.0969L25.6177 93.0654ZM36.9545 97.4722C37.2834 97.3286 37.5763 97.1222 37.8338 96.8533C38.0934 96.5851 38.2927 96.2519 38.4316 95.8537C38.6584 95.2051 38.7216 94.6547 38.6213 94.2026C38.5191 93.7476 38.3134 93.3669 38.0038 93.0604C37.6648 92.7233 37.2952 92.4122 36.8952 92.1269C36.497 91.8444 36.167 91.5636 35.9059 91.284C35.7431 91.0965 35.6288 90.8997 35.5627 90.6933C35.4952 90.484 35.5081 90.2461 35.6013 89.9801C35.6695 89.7854 35.7627 89.6122 35.8809 89.4601C35.9991 89.3083 36.1391 89.1851 36.3002 89.0908C36.4748 88.9936 36.6741 88.9365 36.8984 88.9197C37.1227 88.9029 37.3681 88.9408 37.6341 89.0336C37.9002 89.1269 38.1348 89.2386 38.3377 89.3701C38.5406 89.5011 38.7141 89.6322 38.8591 89.7633L38.5845 90.5486L39.6348 90.9158L40.0913 89.6104C39.9406 89.3594 39.7756 89.1422 39.5959 88.959C39.4134 88.7772 39.2298 88.624 39.0452 88.499C38.8606 88.374 38.6784 88.2704 38.4988 88.1876C38.3195 88.1047 38.1491 88.0351 37.9881 87.9786C37.5006 87.8083 37.0623 87.7404 36.6734 87.7751C36.2831 87.8069 35.9445 87.9069 35.6573 88.0751C35.3702 88.2433 35.1306 88.4583 34.9384 88.7201C34.7466 88.9819 34.6041 89.2597 34.5113 89.5536C34.3277 90.1072 34.2916 90.5726 34.4034 90.9504C34.5148 91.3283 34.7056 91.6586 34.9756 91.9415C35.2366 92.2211 35.5359 92.4751 35.8731 92.7033C36.2123 92.9322 36.5188 93.1686 36.7923 93.4126C36.9616 93.5822 37.1041 93.7486 37.2202 93.9126C37.3356 94.0783 37.4188 94.2744 37.4702 94.5008C37.5013 94.6422 37.4998 94.7961 37.4666 94.9626C37.4334 95.1294 37.3888 95.2929 37.3323 95.4544C37.2423 95.7115 37.1141 95.9204 36.9477 96.0804C36.7813 96.2408 36.5952 96.3601 36.3895 96.4387C36.1788 96.5029 35.9552 96.5315 35.7191 96.5247C35.4809 96.5169 35.2466 96.4726 35.0163 96.3919C34.6181 96.2526 34.2816 96.0622 34.0073 95.8204C33.732 95.5811 33.5106 95.3315 33.3427 95.0722L33.7566 93.8876L32.7063 93.5204L32.1666 95.064C32.2206 95.2836 32.3234 95.5094 32.4763 95.7408C32.6288 95.9722 32.8163 96.1972 33.0384 96.4158C33.2616 96.6319 33.5198 96.834 33.8131 97.0219C34.1041 97.209 34.4184 97.3615 34.7566 97.4797C35.1302 97.6104 35.5059 97.674 35.8834 97.6704C36.2627 97.6701 36.6195 97.604 36.9545 97.4722ZM38.8027 98.5776L42.1763 99.0679L42.3363 97.9669L41.2209 97.8047L41.6952 94.5401L46.9652 95.3058L46.4906 98.5704L45.3756 98.4083L45.2156 99.5094L48.5927 100L48.7527 98.899L47.6481 98.7386L48.7463 91.1786L49.8509 91.3394L50.0109 90.2383L46.6338 89.7476L46.4738 90.8486L47.5891 91.0108L47.1248 94.2047L41.8552 93.439L42.3195 90.2451L43.4345 90.4069L43.5945 89.3058L40.2209 88.8158L40.0609 89.9169L41.162 90.0769L40.0638 97.6365L38.9627 97.4765L38.8027 98.5776ZM50.0123 99.9626L53.4202 99.8736L53.3913 98.7615L52.2648 98.7908L52.0656 91.1544L53.192 91.1251L53.1631 90.0129L49.7552 90.1015L49.7841 91.214L50.8966 91.1851L51.0956 98.8215L49.9834 98.8504L50.0123 99.9626ZM54.7645 99.6958L58.1266 99.1336L57.9434 98.0362L56.3584 98.3012L55.817 95.0615L56.4023 94.9636C56.5309 94.9422 56.6298 94.9233 56.6991 94.9069C56.7684 94.8904 56.8673 94.8715 56.9959 94.8501L59.7677 98.8594L61.7977 98.5197L61.6141 97.4226L60.3063 97.6411L58.1916 94.5637C58.8331 94.3051 59.2895 93.9151 59.5602 93.394C59.8309 92.8729 59.9084 92.2644 59.7916 91.5679C59.7127 91.0958 59.5341 90.7111 59.2566 90.414C58.9766 90.1197 58.6527 89.8926 58.2848 89.7329C57.9152 89.5761 57.5306 89.4819 57.1309 89.4501C56.7288 89.4165 56.3698 89.4258 56.0545 89.4786L53.1377 89.9665L53.3213 91.064L53.9452 90.9597L55.2052 98.494L54.5809 98.5983L54.7645 99.6958ZM55.6309 93.9501L55.0988 90.7669L56.3223 90.5622C56.6098 90.514 56.8881 90.5108 57.157 90.5522C57.4259 90.5936 57.6641 90.6679 57.8716 90.7751C58.0738 90.8926 58.2434 91.0361 58.3798 91.2058C58.5184 91.3726 58.6045 91.5576 58.6384 91.7608C58.668 91.9383 58.6666 92.1297 58.6334 92.3344C58.6006 92.5394 58.5188 92.7333 58.388 92.9162C58.2555 93.1015 58.0663 93.269 57.8198 93.4183C57.5738 93.5701 57.2473 93.6797 56.8405 93.7479L55.6309 93.9501ZM65.1816 97.3197L68.382 96.1354L67.9959 95.0919L67.0291 95.4497L64.3773 88.2854L66.4277 87.5269L66.7955 88.5201L67.8388 88.134L67.0848 86.0972L59.7773 88.8019L60.5313 90.8386L61.5748 90.4526L61.207 89.459L63.2805 88.6915L65.9323 95.8558L64.7956 96.2765L65.1816 97.3197ZM79.4245 88.8983C79.4945 88.5461 79.4923 88.1879 79.4184 87.8229C79.3463 87.4569 79.1866 87.1026 78.9395 86.7611C78.5366 86.2044 78.1209 85.8383 77.6923 85.6626C77.2605 85.4865 76.8306 85.4379 76.402 85.5172C75.9316 85.6033 75.4652 85.7286 75.0027 85.8936C74.5434 86.0594 74.1245 86.1697 73.7456 86.2244C73.4988 86.2511 73.2716 86.2326 73.0648 86.1686C72.8545 86.1044 72.6666 85.9579 72.5013 85.7297C72.3802 85.5626 72.2913 85.3872 72.2341 85.2033C72.177 85.0194 72.1559 84.8344 72.1705 84.6483C72.1905 84.4494 72.2577 84.2533 72.3716 84.0594C72.4859 83.8654 72.657 83.6858 72.8855 83.5208C73.1141 83.3554 73.3398 83.2269 73.5634 83.1354C73.787 83.044 73.9938 82.9761 74.1841 82.9319L74.6716 83.6058L75.5731 82.9533L74.7623 81.8333C74.4702 81.8136 74.1977 81.8251 73.9445 81.8676C73.6909 81.9136 73.4602 81.9769 73.2523 82.0572C73.0441 82.1376 72.8552 82.2279 72.6848 82.3276C72.5145 82.4276 72.3602 82.5276 72.2216 82.6276C71.803 82.9304 71.4973 83.2515 71.3038 83.5904C71.107 83.929 70.9956 84.264 70.9695 84.5961C70.9434 84.9279 70.983 85.2476 71.0884 85.5544C71.1938 85.8615 71.3405 86.1369 71.5288 86.3811C71.8784 86.8479 72.2398 87.1433 72.6138 87.2676C72.9877 87.3919 73.3677 87.424 73.7541 87.3636C74.1327 87.309 74.512 87.2083 74.892 87.0622C75.2738 86.9147 75.6427 86.7979 75.9991 86.7126C76.2348 86.6704 76.453 86.6486 76.6538 86.6469C76.8556 86.6469 77.0641 86.6904 77.2795 86.7776C77.413 86.8329 77.5388 86.9219 77.657 87.0444C77.7748 87.1669 77.8838 87.2972 77.9838 87.4354C78.1434 87.6561 78.2416 87.8808 78.278 88.1086C78.3145 88.3369 78.3063 88.5579 78.2534 88.7715C78.1859 88.9811 78.0816 89.1812 77.9409 89.3708C77.7984 89.5619 77.628 89.729 77.4305 89.8719C77.0888 90.1194 76.7406 90.2865 76.3852 90.374C76.0316 90.4633 75.7002 90.5026 75.3913 90.4922L74.6555 89.4758L73.7541 90.1283L74.7131 91.4529C74.9241 91.5344 75.1681 91.5783 75.4452 91.5854C75.7223 91.5926 76.0141 91.5672 76.3205 91.509C76.6255 91.4494 76.9388 91.3526 77.2605 91.2194C77.5805 91.0872 77.8852 90.9165 78.1752 90.7065C78.4959 90.4744 78.7627 90.2022 78.9752 89.8904C79.1913 89.579 79.3413 89.2483 79.4245 88.8983ZM81.3273 88.1019L83.7545 85.7079L82.9731 84.9158L81.8291 86.044L79.5227 83.7058L80.6159 82.6272C81.2991 81.9533 81.6448 81.2594 81.6531 80.5458C81.6613 79.8319 81.3652 79.1704 80.7645 78.5611C80.4284 78.2204 80.0613 78.0083 79.6627 77.9254C79.2645 77.8458 78.8688 77.8461 78.4763 77.9272C78.0834 78.0115 77.7148 78.1558 77.3698 78.3597C77.0216 78.5633 76.7334 78.7776 76.5059 79.0022L74.4002 81.079L75.1816 81.8711L75.632 81.4269L80.9966 86.8654L80.5463 87.3097L81.3273 88.1019ZM78.7313 82.9036L76.4645 80.6054L77.3477 79.7344C77.5552 79.5297 77.7809 79.3669 78.0248 79.2465C78.2688 79.1258 78.5063 79.0497 78.7377 79.0176C78.9709 78.9972 79.192 79.0172 79.4009 79.0772C79.6098 79.134 79.787 79.2358 79.9316 79.3826C80.0581 79.5108 80.1666 79.6683 80.2577 79.8547C80.3484 80.0415 80.3934 80.2469 80.392 80.4715C80.3905 80.6994 80.3316 80.9454 80.2159 81.2094C80.102 81.4751 79.898 81.7526 79.6045 82.0422L78.7313 82.9036ZM90.3413 74.5394C90.2213 73.9072 89.982 73.3108 89.623 72.7508C89.2623 72.189 88.792 71.7151 88.212 71.329C87.642 70.9494 87.0263 70.7004 86.3648 70.5822C85.7056 70.4651 85.057 70.4704 84.4198 70.5983C83.7805 70.7251 83.1784 70.9704 82.6141 71.3351C82.0498 71.6997 81.578 72.1669 81.1984 72.7372C80.8138 73.3151 80.5634 73.9329 80.4477 74.5904C80.332 75.2479 80.3416 75.8919 80.4766 76.5226C80.6045 77.1601 80.8513 77.7583 81.2166 78.3176C81.5838 78.8779 82.0523 79.3479 82.6223 79.7272C83.2023 80.1133 83.8198 80.3661 84.4745 80.4858C85.1273 80.6044 85.7684 80.5969 86.398 80.4636C87.0323 80.3447 87.628 80.104 88.1859 79.7408C88.7438 79.3776 89.2148 78.9069 89.5995 78.329C89.9791 77.759 90.2298 77.1444 90.3523 76.4858C90.4748 75.8272 90.4709 75.1783 90.3413 74.5394ZM86.202 79.334C85.7156 79.4401 85.2195 79.4458 84.7134 79.3511C84.2052 79.2551 83.7245 79.0558 83.2705 78.7536C82.8188 78.4529 82.4505 78.0869 82.1656 77.6551C81.8827 77.2247 81.6923 76.7622 81.5945 76.2676C81.4895 75.7794 81.4813 75.2826 81.5698 74.7776C81.6563 74.2715 81.8477 73.7954 82.1445 73.3497C82.4413 72.904 82.8063 72.5433 83.2398 72.2683C83.6716 71.9919 84.1352 71.804 84.6316 71.7044C85.1206 71.6111 85.618 71.6122 86.1241 71.7072C86.6323 71.8033 87.1123 72.0019 87.5641 72.3026C88.0177 72.6047 88.3873 72.9715 88.672 73.4029C88.9548 73.8333 89.1438 74.2894 89.2391 74.7711C89.3388 75.2672 89.3445 75.7679 89.2559 76.2726C89.1695 76.7786 88.9781 77.2547 88.6813 77.7004C88.3845 78.1461 88.0195 78.5069 87.5859 78.7819C87.1541 79.0583 86.6931 79.2422 86.202 79.334ZM93.6641 70.6483L94.8845 67.4619L93.8456 67.0636L93.477 68.0265L86.343 65.294L87.1252 63.2522L88.1145 63.6311L88.5123 62.5922L86.4841 61.8154L83.697 69.0919L85.7252 69.8686L86.123 68.8297L85.1341 68.4508L85.9248 66.3861L93.0584 69.1186L92.6248 70.2504L93.6641 70.6483Z" fill="#272727"/>
<path d="M10.0263 39.0611L11.1763 35.8482L10.1288 35.4732L9.78127 36.4439L2.58913 33.8693L3.32592 31.8111L4.32341 32.1682L4.69842 31.1204L2.65341 30.3886L0.0273438 37.7246L2.07199 38.4564L2.44699 37.4089L1.44984 37.0521L2.19484 34.9704L9.38734 37.545L8.97877 38.6861L10.0263 39.0611ZM12.2031 33.3971L14.0227 30.5143L13.082 29.9204L12.4806 30.8732L9.69092 29.1125L12.5331 24.6096L15.3227 26.3704L14.7213 27.3232L15.662 27.9171L17.4834 25.0314L16.5427 24.4375L15.947 25.3814L9.48699 21.3039L10.0827 20.36L9.14199 19.7661L7.32056 22.6518L8.26127 23.2457L8.8627 22.2929L11.5923 24.0157L8.74984 28.5186L6.02056 26.7957L6.62199 25.8429L5.68127 25.2489L3.86163 28.1318L4.80234 28.7257L5.39627 27.7846L11.8563 31.8621L11.2623 32.8032L12.2031 33.3971ZM17.8327 24.7861L22.7688 19.7389L21.2188 18.2229L20.4406 19.0182L21.1956 19.7564L18.4066 22.6079L16.0484 20.3011L19.0931 17.1882L18.2977 16.41L15.2531 19.5232L12.9456 17.2664L15.5948 14.5575L16.3523 15.2982L17.1302 14.5025L15.5773 12.9839L10.7806 17.8889L11.5759 18.6668L12.1277 18.1025L17.5891 23.4439L17.0373 24.0082L17.8327 24.7861ZM28.217 16.0764L31.1881 14.3975L30.6406 13.4289L29.7431 13.9361L25.9852 7.285L27.8888 6.20964L28.4098 7.13214L29.3784 6.58464L28.3098 4.69357L21.5259 8.52679L22.5945 10.4179L23.5631 9.87036L23.042 8.94821L24.967 7.86036L28.7248 14.5114L27.6695 15.1075L28.217 16.0764ZM38.2898 10.8893C38.4577 10.5721 38.5584 10.2282 38.592 9.85714C38.6277 9.48571 38.5759 9.10107 38.4366 8.70286C38.2098 8.05393 37.9163 7.58429 37.5563 7.29357C37.1931 7.00107 36.7948 6.83179 36.3616 6.78464C35.8863 6.7325 35.4034 6.71929 34.9131 6.74536C34.4256 6.7725 33.9923 6.75821 33.6138 6.7025C33.3695 6.65714 33.1573 6.57464 32.9773 6.45429C32.7941 6.3325 32.6559 6.13857 32.5631 5.87214C32.4948 5.6775 32.4598 5.48393 32.4577 5.29143C32.4556 5.09893 32.4884 4.91571 32.5556 4.74143C32.6313 4.55679 32.752 4.38786 32.9166 4.23464C33.0816 4.08179 33.2973 3.95857 33.5634 3.86571C33.8295 3.7725 34.0827 3.71393 34.3231 3.69036C34.5634 3.66643 34.7809 3.66071 34.9759 3.67286L35.2506 4.45821L36.3009 4.09107L35.8445 2.78571C35.5702 2.68321 35.3056 2.61607 35.0513 2.58464C34.7952 2.55607 34.5559 2.55071 34.3338 2.56821C34.1113 2.58571 33.9041 2.61786 33.7123 2.665C33.5202 2.71214 33.3438 2.76357 33.1827 2.82C32.6952 2.99036 32.3102 3.21036 32.0277 3.48C31.7423 3.74786 31.5398 4.03714 31.4198 4.34786C31.2998 4.65821 31.2466 4.97571 31.2595 5.3C31.2723 5.62429 31.3341 5.93036 31.4448 6.21786C31.6463 6.76536 31.9084 7.15179 32.2309 7.37786C32.5534 7.60429 32.9084 7.74357 33.2959 7.79643C33.6745 7.85214 34.0666 7.86464 34.4723 7.83321C34.8806 7.80107 35.2673 7.795 35.6334 7.815C35.8716 7.8425 36.0866 7.88393 36.2795 7.93929C36.4731 7.99714 36.6602 8.09893 36.8416 8.24393C36.9538 8.335 37.0488 8.45607 37.1266 8.60714C37.2048 8.75821 37.2716 8.91429 37.3281 9.07536C37.4181 9.3325 37.4477 9.57571 37.4173 9.80464C37.387 10.0339 37.3159 10.2432 37.2041 10.4329C37.0791 10.6146 36.9223 10.7761 36.7334 10.9175C36.542 11.0596 36.3313 11.1711 36.1009 11.2518C35.7027 11.3911 35.3209 11.4518 34.9556 11.4336C34.5913 11.4182 34.2623 11.3611 33.9695 11.2625L33.5552 10.0782L32.5048 10.4454L33.0445 11.9889C33.2234 12.1271 33.4448 12.2393 33.7084 12.3254C33.972 12.4114 34.2588 12.4707 34.5688 12.5029C34.8781 12.5329 35.2059 12.53 35.5523 12.4943C35.8966 12.4593 36.2377 12.3825 36.5752 12.2646C36.9488 12.1339 37.2823 11.9496 37.5756 11.7114C37.872 11.4746 38.1102 11.2007 38.2898 10.8893ZM39.562 11.1929L42.9356 10.7029L42.7756 9.60179L41.6606 9.76357L41.1863 6.49929L46.4559 5.73357L46.9302 8.99821L45.8152 9.16L45.9752 10.2611L49.352 9.77036L49.192 8.66929L48.0877 8.83L46.9891 1.27036L48.0938 1.10964L47.9338 0.00857143L44.5566 0.499286L44.7166 1.60036L45.832 1.43821L46.2959 4.6325L41.0263 5.39821L40.5623 2.20393L41.6773 2.04179L41.5173 0.940714L38.1438 1.43107L38.3038 2.53214L39.4048 2.37214L40.5031 9.93179L39.402 10.0918L39.562 11.1929ZM49.8741 9.86107L53.282 9.95L53.3109 8.8375L52.1845 8.80821L52.3838 1.17179L53.5102 1.20107L53.5391 0.0889286L50.1313 0L50.1023 1.11214L51.2145 1.14143L51.0156 8.77786L49.9034 8.74893L49.8741 9.86107ZM53.8927 10.0571L57.2548 10.6196L57.4384 9.52214L55.8538 9.25714L56.3956 6.0175L56.9809 6.11536C57.1095 6.13679 57.2091 6.15107 57.2802 6.15821C57.3509 6.16536 57.4506 6.17964 57.5791 6.20107L58.8959 10.8939L60.9259 11.2332L61.1091 10.1361L59.8016 9.91714L58.8031 6.31929C59.4938 6.28321 60.052 6.06321 60.4777 5.65857C60.9031 5.25393 61.1741 4.70357 61.2909 4.00679C61.3698 3.53464 61.3259 3.11286 61.1598 2.74179C60.9909 2.37214 60.7588 2.05214 60.4627 1.78179C60.1641 1.51321 59.8309 1.29893 59.4638 1.13893C59.0945 0.976071 58.752 0.868571 58.4366 0.815714L55.5195 0.327857L55.3359 1.42536L55.9602 1.52964L54.7002 9.06429L54.0763 8.96L53.8927 10.0571ZM56.5813 4.90607L57.1134 1.7225L58.337 1.92714C58.6245 1.97536 58.8888 2.06286 59.1295 2.18929C59.3702 2.31607 59.5713 2.46393 59.7331 2.63286C59.8859 2.80964 59.9995 3.00036 60.0734 3.205C60.1498 3.4075 60.1713 3.61071 60.1373 3.81393C60.1077 3.99179 60.0438 4.17214 59.9459 4.355C59.8481 4.53821 59.7077 4.695 59.5248 4.82536C59.3395 4.9575 59.1056 5.05429 58.8241 5.11536C58.542 5.17857 58.1973 5.17643 57.7909 5.10821L56.5813 4.90607ZM63.347 12.1771L66.5473 13.3614L66.9338 12.3182L65.967 11.9604L68.6184 4.79607L70.6688 5.555L70.3009 6.54857L71.3445 6.93464L72.0984 4.89786L64.7909 2.19321L64.037 4.23L65.0806 4.61607L65.4481 3.62286L67.5216 4.39036L64.8702 11.5543L63.7334 11.1336L63.347 12.1771ZM77.0509 18.9214C77.407 18.8779 77.747 18.7643 78.0702 18.58C78.3956 18.3971 78.682 18.135 78.9295 17.7932C79.3323 17.2364 79.5506 16.7271 79.5834 16.2654C79.6159 15.8004 79.5273 15.3768 79.3188 14.9943C79.0902 14.5743 78.8252 14.1707 78.5238 13.7829C78.2231 13.3982 77.9873 13.0346 77.817 12.6918C77.7145 12.4657 77.6613 12.2443 77.6573 12.0275C77.6523 11.8079 77.7327 11.5836 77.8981 11.355C78.0191 11.1882 78.1581 11.0486 78.3148 10.9371C78.472 10.8254 78.6409 10.7475 78.8223 10.7032C79.0173 10.66 79.2245 10.6625 79.4445 10.7104C79.6641 10.7582 79.8884 10.865 80.117 11.0304C80.3452 11.1957 80.5377 11.37 80.6945 11.5539C80.8513 11.7375 80.9802 11.9129 81.0816 12.0796L80.5941 12.7536L81.4952 13.4061L82.3063 12.2857C82.2334 12.0021 82.1373 11.7468 82.0181 11.52C81.8952 11.2936 81.7631 11.0943 81.6216 10.9214C81.4806 10.7489 81.3356 10.5975 81.1873 10.4668C81.0391 10.3361 80.8959 10.2207 80.7577 10.1207C80.3391 9.81786 79.9388 9.62714 79.5563 9.54929C79.1734 9.46821 78.8202 9.46714 78.497 9.54607C78.1734 9.625 77.8823 9.7625 77.6234 9.95821C77.3648 10.1543 77.1488 10.3796 76.9759 10.6346C76.6416 11.1125 76.4738 11.5486 76.4727 11.9425C76.4713 12.3364 76.5595 12.7075 76.7373 13.0557C76.9077 13.3982 77.1216 13.7271 77.3791 14.0425C77.6384 14.3589 77.8645 14.6732 78.057 14.985C78.1706 15.1961 78.2595 15.3964 78.3241 15.5864C78.387 15.7782 78.4106 15.99 78.3952 16.2218C78.3845 16.3661 78.3391 16.5132 78.2598 16.6632C78.1802 16.8136 78.0906 16.9579 77.9906 17.0961C77.8306 17.3168 77.6481 17.48 77.4427 17.5857C77.2373 17.6918 77.0248 17.7529 76.8052 17.7693C76.5848 17.7707 76.3623 17.7343 76.1384 17.66C75.9123 17.5839 75.7006 17.4746 75.5031 17.3314C75.1613 17.0843 74.8934 16.8054 74.6995 16.4954C74.5041 16.1871 74.3634 15.885 74.2766 15.5882L75.0123 14.5718L74.1113 13.9193L73.1523 15.2439C73.1409 15.4696 73.1752 15.7154 73.2552 15.9807C73.3352 16.2464 73.4502 16.5157 73.6009 16.7886C73.7531 17.0593 73.9427 17.3268 74.1698 17.5907C74.3952 17.8536 74.6527 18.0896 74.9427 18.2993C75.2631 18.5314 75.6048 18.7 75.9681 18.8046C76.3316 18.9129 76.6923 18.9518 77.0509 18.9214ZM77.6163 20.2014L80.0431 22.5954L80.8245 21.8032L79.6806 20.675L81.987 18.3364L83.0806 19.415C83.7638 20.0889 84.4623 20.425 85.1763 20.4236C85.8898 20.4221 86.5473 20.1168 87.1481 19.5075C87.4841 19.1668 87.6913 18.7968 87.7688 18.3975C87.8434 17.9982 87.8373 17.6025 87.7505 17.2111C87.6609 16.8196 87.5116 16.4529 87.3034 16.1107C87.0948 15.7654 86.8766 15.4804 86.6488 15.2554L84.5434 13.1786L83.762 13.9707L84.2123 14.415L78.8481 19.8536L78.3973 19.4093L77.6163 20.2014ZM82.7784 17.5343L85.0452 15.2364L85.9284 16.1075C86.1359 16.3121 86.3016 16.5357 86.4256 16.7779C86.5495 17.02 86.6291 17.2564 86.6641 17.4875C86.6877 17.7204 86.6706 17.9414 86.6134 18.1514C86.5595 18.3614 86.4602 18.5396 86.3156 18.6864C86.1891 18.8146 86.0331 18.9254 85.8477 19.0189C85.6623 19.1121 85.4573 19.1596 85.2327 19.1614C85.0048 19.1629 84.7584 19.1075 84.4927 18.9954C84.2256 18.885 83.9452 18.685 83.6516 18.3954L82.7784 17.5343ZM88.2202 31.4129C88.8498 31.5461 89.4923 31.5557 90.1477 31.4411C90.8052 31.325 91.4238 31.0743 92.0038 30.6882C92.5738 30.3086 93.0413 29.8368 93.4059 29.2725C93.7684 28.7096 94.0138 28.1093 94.1416 27.4718C94.2716 26.8329 94.2773 26.1829 94.1588 25.5218C94.0402 24.8604 93.7913 24.2446 93.412 23.6746C93.0273 23.0964 92.5541 22.6271 91.9923 22.2664C91.4306 21.9061 90.8327 21.6664 90.1984 21.5475C89.5609 21.4196 88.9138 21.4161 88.2573 21.5371C87.5984 21.6596 86.9841 21.9107 86.4141 22.29C85.8341 22.6761 85.3623 23.1479 84.9991 23.7057C84.6381 24.2621 84.3973 24.8564 84.277 25.4886C84.142 26.1196 84.1341 26.7625 84.2541 27.4171C84.3738 28.0718 84.6259 28.6882 85.0109 29.2661C85.3902 29.8364 85.8602 30.305 86.4206 30.6721C86.9809 31.0393 87.5809 31.2864 88.2202 31.4129ZM85.3948 25.7439C85.4848 25.2543 85.6709 24.7943 85.9541 24.3639C86.2388 23.9325 86.6084 23.5657 87.062 23.2636C87.5138 22.9629 87.9938 22.7643 88.502 22.6682C89.0081 22.5732 89.5081 22.5764 90.0023 22.6771C90.4934 22.7689 90.9545 22.9529 91.3863 23.2293C91.8198 23.5043 92.1848 23.865 92.4816 24.3107C92.7784 24.7564 92.9702 25.2325 93.0563 25.7386C93.1448 26.2436 93.1391 26.7439 93.0395 27.2404C92.9366 27.7271 92.7438 28.1857 92.4609 28.6161C92.1759 29.0479 91.8073 29.4139 91.3556 29.7146C90.902 30.0168 90.4209 30.2157 89.9131 30.3121C89.4066 30.4068 88.9131 30.4054 88.432 30.3068C87.9359 30.2071 87.472 30.0193 87.0406 29.7429C86.6066 29.4679 86.2416 29.1075 85.9448 28.6614C85.6481 28.2157 85.4566 27.7396 85.3702 27.2336C85.282 26.7286 85.2902 26.2321 85.3948 25.7439ZM88.7288 35.7829L89.9495 38.9696L90.9884 38.5718L90.6198 37.6089L97.7534 34.8764L98.5356 36.9179L97.5463 37.2968L97.9441 38.3357L99.9723 37.5589L97.1852 30.2825L95.157 31.0596L95.5548 32.0986L96.5441 31.7196L97.3352 33.7843L90.2013 36.5168L89.7677 35.385L88.7288 35.7829Z" fill="#272727"/>
<path d="M4.05176 52.2704C4.05176 51.639 4.56354 51.1272 5.19533 51.1272C5.82676 51.1272 6.33854 51.639 6.33854 52.2704C6.33854 52.9018 5.82676 53.4136 5.19533 53.414C4.5639 53.414 4.05211 52.9022 4.05176 52.2704ZM93.6328 52.2704C93.6328 51.639 94.1446 51.1272 94.776 51.1272C95.4075 51.1272 95.9193 51.639 95.9193 52.2704C95.9193 52.9018 95.4075 53.4136 94.776 53.414C94.1446 53.414 93.6328 52.9022 93.6328 52.2704Z" fill="#272727"/>
</svg>
