<svg width="34" height="34" viewBox="0 0 34 34" fill="none" xmlns="http://www.w3.org/2000/svg">
<path d="M27.3601 27C28.2456 27 29.0139 27.3383 29.6651 28.015C30.3162 28.6917 30.6417 29.4728 30.6417 30.3583C30.6417 31.2439 30.3162 32.0122 29.6651 32.6633C29.0139 33.3144 28.2456 33.64 27.3601 33.64C26.4745 33.64 25.6934 33.3144 25.0167 32.6633C24.3401 32.0122 24.0017 31.2439 24.0017 30.3583C24.0017 29.4728 24.3401 28.6917 25.0167 28.015C25.6934 27.3383 26.4745 27 27.3601 27ZM0.640052 0.359985H6.10839L7.67172 3.64165H32.3601C32.8289 3.64165 33.2195 3.8111 33.5317 4.14999C33.8439 4.48887 34.0001 4.89276 34.0001 5.36165C34.0001 5.41387 33.9217 5.67443 33.7651 6.14332L27.8267 16.925C27.2012 18.0705 26.2378 18.6433 24.9367 18.6433H12.5151L11.0301 21.3783L10.9517 21.6133C10.9517 21.8733 11.0817 22.0033 11.3417 22.0033H30.6384V25.3633H10.6384C9.75283 25.3633 8.9845 25.025 8.33339 24.3483C7.68227 23.6717 7.35672 22.8905 7.35672 22.005C7.35672 21.4839 7.48672 20.9628 7.74672 20.4417L10.0117 16.3017L3.99672 3.64499H0.636719V0.363318L0.640052 0.359985ZM10.6401 27C11.5256 27 12.3067 27.3383 12.9834 28.015C13.6601 28.6917 13.9984 29.4728 13.9984 30.3583C13.9984 31.2439 13.6601 32.0122 12.9834 32.6633C12.3067 33.3144 11.5256 33.64 10.6401 33.64C9.7545 33.64 8.98616 33.3144 8.33505 32.6633C7.68394 32.0122 7.35839 31.2439 7.35839 30.3583C7.35839 29.4728 7.68394 28.6917 8.33505 28.015C8.98616 27.3383 9.7545 27 10.6401 27Z" fill="white"/>
</svg>
