<svg width="34" height="35" viewBox="0 0 34 35" fill="none" xmlns="http://www.w3.org/2000/svg">
<path d="M15.4209 0.536362C6.51135 1.40072 -0.277197 9.06693 0.00870709 17.9565C0.0951431 20.543 0.653652 22.7837 1.79062 25.0642C3.4462 28.402 6.09247 31.0483 9.43688 32.7105C14.8558 35.41 21.2653 35.0376 26.3185 31.7331C28.2932 30.4432 30.1682 28.5283 31.4448 26.4937C31.9368 25.7225 32.6682 24.2198 33.0007 23.3156C33.3398 22.398 33.732 20.8156 33.8717 19.785C34.0246 18.7411 34.0445 16.3209 33.9116 15.3967C33.5193 12.6374 32.6416 10.2837 31.1855 8.08953C30.5738 7.15869 29.9555 6.40071 29.0911 5.5297C26.4382 2.85019 23.1403 1.18795 19.3704 0.629444C18.5592 0.509766 16.272 0.456573 15.4209 0.536362ZM21.0725 9.10682C21.2254 9.2265 21.2321 9.27304 21.252 10.2571C21.2786 11.4007 21.2188 11.7531 20.9794 11.7996C20.8996 11.8196 20.4342 11.8462 19.9422 11.8661C18.9049 11.906 18.5791 12.019 18.3265 12.4246C18.1802 12.6573 18.1736 12.7504 18.1536 14.0137L18.1337 15.3635H19.5366C20.3677 15.3635 20.9927 15.3901 21.0658 15.4299C21.3318 15.5762 21.3451 15.7092 21.1988 16.9459C21.0392 18.3422 21.0259 18.3821 20.893 18.515C20.8065 18.6081 20.5805 18.6214 19.4635 18.6214H18.1403V22.1919C18.1403 25.4166 18.127 25.769 18.0273 25.882C17.9276 25.9884 17.7946 26.0017 16.5446 26.0017C15.5672 26.0017 15.155 25.9818 15.0951 25.9219C15.0353 25.8621 15.0153 24.9512 15.0153 22.2318V18.6214H13.9581C12.9342 18.6214 12.8943 18.6148 12.7946 18.4751C12.7081 18.3488 12.6882 18.0962 12.6882 17.0057C12.6882 15.6959 12.6882 15.6893 12.8544 15.5297C13.0073 15.3701 13.0406 15.3635 14.0113 15.3635H15.002L15.0286 13.6813C15.0552 12.1587 15.0685 11.9592 15.2081 11.5403C15.5339 10.543 16.1257 9.8249 16.9701 9.41267C17.6483 9.07357 18.1669 8.99379 19.643 8.98714C20.8065 8.98049 20.9329 8.99379 21.0725 9.10682Z" fill="white"/>
</svg>
