<svg width="34" height="35" viewBox="0 0 34 35" fill="none" xmlns="http://www.w3.org/2000/svg">
<path d="M15.3843 0.555084C10.0651 1.10696 5.40412 3.99929 2.57163 8.50734C-1.44439 14.8904 -0.693049 23.3281 4.38017 28.8867C7.19272 31.9652 10.7034 33.807 14.9189 34.4054C15.7035 34.5184 18.3166 34.5118 19.141 34.4054C22.9908 33.8734 26.435 32.1646 29.0548 29.4917C29.9191 28.6141 30.0987 28.4079 30.6705 27.6499C32.3726 25.3826 33.483 22.6166 33.9152 19.5979C34.0283 18.8134 34.0283 16.1936 33.9152 15.409C33.6293 13.3944 33.104 11.6789 32.2729 9.99673C31.3819 8.21478 30.4777 6.94482 29.0614 5.51527C26.435 2.85565 23.1504 1.20004 19.3738 0.641521C18.5559 0.521839 16.1955 0.468647 15.3843 0.555084ZM21.0227 7.79589C22.9377 7.92223 24.0547 8.34112 25.0786 9.31188C26.1159 10.3026 26.5946 11.5194 26.721 13.4941C26.8074 14.7907 26.8074 20.1831 26.721 21.4996C26.5946 23.4943 26.1026 24.7244 25.0387 25.7284C24.048 26.6659 22.9044 27.0914 21.0227 27.2111C19.7461 27.2909 14.2806 27.2909 13.004 27.2111C11.0891 27.0848 9.97202 26.6659 8.94806 25.6951C7.91081 24.7044 7.43208 23.4876 7.30575 21.5129C7.21931 20.223 7.22596 14.6777 7.30575 13.4542C7.43873 11.5061 7.91746 10.2959 8.94806 9.31188C9.93212 8.38101 11.109 7.91558 12.8178 7.80254C13.9415 7.72276 19.8724 7.72276 21.0227 7.79589Z" fill="white"/>
<path d="M14.5864 9.53136C12.5917 9.57125 12.2659 9.5912 11.8204 9.71088C10.4041 10.0965 9.5996 10.8944 9.22061 12.3107C9.10092 12.7561 9.08098 13.0886 9.04108 15.1631C9.02114 16.4464 9.02114 18.5608 9.04108 19.8507C9.08098 21.9185 9.10092 22.251 9.22061 22.6965C9.5996 24.1127 10.4041 24.9172 11.8204 25.2962C12.2659 25.4159 12.5983 25.4359 14.6728 25.4758C15.9561 25.4957 18.0705 25.4957 19.3604 25.4758C21.4416 25.4359 21.7607 25.4159 22.2195 25.2896C23.5958 24.9239 24.4336 24.0928 24.806 22.7098C24.9256 22.2443 24.9456 21.9385 24.9855 19.844C25.0054 18.5608 25.0054 16.4464 24.9855 15.1564C24.9456 13.0819 24.9256 12.7561 24.806 12.3107C24.427 10.8944 23.6158 10.0832 22.2062 9.71088C21.6876 9.5779 21.5546 9.57125 17.8112 9.50476C17.2792 9.49811 15.8298 9.51141 14.5864 9.53136ZM22.645 11.1936C22.8977 11.2867 23.1969 11.5726 23.3033 11.8319C23.6291 12.5833 23.0506 13.4476 22.2328 13.4476C21.6078 13.4476 21.0692 12.9157 21.0692 12.2907C21.0692 11.4862 21.8937 10.9077 22.645 11.1936ZM18.629 12.7628C19.4335 13.0421 19.879 13.328 20.5107 13.9463C21.1224 14.5514 21.5014 15.1498 21.7807 15.941C21.9535 16.4331 21.9668 16.5461 21.9668 17.5036C21.9668 18.461 21.9535 18.5741 21.7807 19.0661C21.5147 19.8307 21.1157 20.4557 20.5439 21.0342C19.9655 21.606 19.3405 22.005 18.5758 22.2709C18.0838 22.4438 17.9707 22.4571 17.0133 22.4571C16.0558 22.4571 15.9428 22.4438 15.4508 22.2709C14.6595 21.9917 14.0611 21.6127 13.456 21.001C12.8377 20.3693 12.5584 19.9238 12.2659 19.1193C12.0664 18.5541 12.0597 18.4943 12.0597 17.5036C12.0664 16.566 12.0797 16.4264 12.2459 15.941C12.5917 14.9104 13.3297 13.9397 14.2207 13.3479C15.1914 12.7029 15.8896 12.5101 17.1463 12.5367C17.9442 12.5567 18.1037 12.5833 18.629 12.7628Z" fill="white"/>
<path d="M16.2289 14.3518C14.4802 14.8173 13.4163 16.5726 13.8552 18.2615C14.1743 19.4782 15.0387 20.3426 16.2621 20.6618C18.5494 21.2602 20.7702 19.0394 20.1718 16.7521C19.7063 14.9768 17.931 13.8931 16.2289 14.3518Z" fill="white"/>
</svg>
