<svg width="100" height="100" viewBox="0 0 100 100" fill="none" xmlns="http://www.w3.org/2000/svg">
<path d="M67.4622 30.869H49.9999H32.5377L26.4297 41.9739L49.9999 69.131L73.5701 41.9739L67.4622 30.869ZM65.8556 33.8601L69.4336 40.3659H63.0036L65.8556 33.8601ZM62.807 33.7177L60.1969 39.6744L53.6731 33.7177H62.807ZM56.7283 40.3659H49.9999H43.2716L49.9999 34.2221L56.7283 40.3659ZM46.3267 33.7177L39.8034 39.6744L37.1928 33.7177H46.3267ZM34.1442 33.8601L36.9962 40.3659H30.5663L34.1442 33.8601ZM31.2795 43.2146H38.245L45.3528 59.4305L31.2795 43.2146ZM41.3558 43.2146H49.9999H58.6445L49.9999 62.9349L41.3558 43.2146ZM54.6465 59.4309L61.7544 43.2151H68.7203L54.6465 59.4309Z" fill="white"/>
<path d="M12.6992 60.7142L15.1114 67.5739L13.1246 67.9757L12.4292 65.9982L4.70959 68.7124L3.82959 66.2096L11.5489 63.4949L10.8053 61.3803L12.6992 60.7142ZM10.2349 79.4324L8.90745 77.1349L12.5896 75.0074L11.5035 73.1278L7.82138 75.2557L6.49388 72.9582L15.3174 67.8599L16.6449 70.1571L13.2817 72.1003L14.3678 73.9799L17.7307 72.0367L19.0582 74.3339L10.2349 79.4324ZM19.7428 75.0257L23.7074 79.5074L22.1164 80.5407L20.0953 78.256L18.4271 79.7321L20.206 81.7432L18.8324 82.9582L17.0535 80.9471L15.2842 82.5121L17.4417 84.951L16.0257 86.2039L12.1103 81.7778L19.7428 75.0257ZM26.3235 81.6685L32.4446 85.5935L31.1249 87.1321L29.3603 86.0007L24.9432 92.8889L22.7099 91.4567L27.1271 84.5685L25.2399 83.3585L26.3235 81.6685ZM35.8985 86.6689C36.5585 86.9357 37.1007 87.276 37.5249 87.6899C37.9471 88.1028 38.2735 88.5985 38.5042 89.176L36.9167 90.0185C36.5407 89.2771 36.0489 88.7839 35.4414 88.5385C35.1146 88.4064 34.8357 88.3803 34.6042 88.4603C34.3707 88.5392 34.201 88.7103 34.0946 88.9735C34.021 89.1553 34.0053 89.3264 34.0482 89.4867C34.0885 89.6457 34.1946 89.8253 34.366 90.0246C34.5371 90.2264 34.8035 90.4946 35.1657 90.8296C35.6574 91.3039 36.0317 91.7407 36.2885 92.1407C36.5439 92.5371 36.6885 92.9617 36.7224 93.4142C36.7571 93.8646 36.6624 94.3667 36.4382 94.9214C36.1971 95.5178 35.8403 95.9867 35.3682 96.3289C34.8978 96.6717 34.3439 96.8624 33.706 96.9007C33.0692 96.9364 32.3835 96.806 31.6492 96.5092C30.2635 95.9492 29.316 95.0342 28.8067 93.7646L30.5182 92.9374C30.7453 93.366 30.9932 93.7249 31.261 94.0146C31.5278 94.301 31.8474 94.5196 32.2203 94.6703C32.6017 94.8246 32.9274 94.8453 33.1978 94.7324C33.4699 94.6207 33.6699 94.4067 33.7974 94.091C33.926 93.7732 33.9289 93.4785 33.8067 93.2071C33.6842 92.9357 33.3971 92.5924 32.9449 92.1778C32.1235 91.4146 31.6049 90.7257 31.3892 90.1107C31.1735 89.4957 31.2049 88.8439 31.4835 88.1553C31.7103 87.5942 32.0535 87.1589 32.5124 86.8496C32.9703 86.5374 33.4946 86.3667 34.0853 86.3378C34.6782 86.3096 35.2828 86.4199 35.8985 86.6689ZM45.1253 99.7842L42.5199 99.2821L43.3249 95.106L41.1935 94.6953L40.3885 98.8714L37.7835 98.3689L39.7124 88.3628L42.3174 88.8649L41.5824 92.6785L43.7139 93.0896L44.4489 89.276L47.0542 89.7782L45.1253 99.7842ZM48.2592 89.7407L50.9114 89.8132L50.6324 99.9999L47.9803 99.9274L48.2592 89.7407ZM58.441 99.0982L56.1682 95.596L55.6028 95.6757L56.1299 99.4232L53.5028 99.7928L52.0832 89.7017L55.2339 89.2585C57.9149 88.8814 59.4028 89.7382 59.6967 91.8292C59.8749 93.096 59.4553 94.0782 58.4385 94.7753L61.2721 98.6999L58.441 99.0982ZM54.9678 91.1621L55.3517 93.8914L55.9489 93.8071C56.3939 93.7446 56.6999 93.5857 56.8667 93.3307C57.0314 93.076 57.0792 92.7014 57.0096 92.2074C56.9471 91.7624 56.7896 91.4492 56.5371 91.2674C56.2846 91.0857 55.9267 91.0274 55.4632 91.0924L54.9678 91.1621ZM59.3742 88.6446L66.2299 86.221L66.6349 88.2071L64.6585 88.906L67.3857 96.621L64.8842 97.5053L62.1571 89.7903L60.0435 90.5374L59.3742 88.6446ZM71.9485 82.3764C72.531 81.9674 73.1114 81.6971 73.6896 81.5657C74.2657 81.4357 74.8589 81.431 75.4692 81.5514L75.3139 83.3421C74.4871 83.2549 73.8057 83.3999 73.2696 83.776C72.9814 83.9785 72.8078 84.1985 72.7492 84.4364C72.6889 84.6753 72.7399 84.911 72.9028 85.1432C73.0157 85.3039 73.1507 85.4099 73.3082 85.461C73.4635 85.5135 73.6717 85.5221 73.9328 85.4864C74.1949 85.4524 74.5653 85.3746 75.0428 85.2528C75.7082 85.0978 76.2785 85.021 76.7535 85.0224C77.2253 85.0235 77.6603 85.1328 78.0585 85.3503C78.4553 85.5657 78.8257 85.9182 79.1692 86.4078C79.5389 86.9342 79.7389 87.4885 79.7696 88.0714C79.8021 88.6524 79.661 89.221 79.346 89.7771C79.0299 90.331 78.5478 90.8357 77.8996 91.291C76.6764 92.1496 75.3935 92.4482 74.051 92.1857L74.2867 90.2996C74.7699 90.3417 75.206 90.3289 75.5946 90.261C75.9799 90.1928 76.3371 90.0432 76.6664 89.8121C77.0032 89.5757 77.1974 89.3135 77.2496 89.0257C77.3035 88.7364 77.2328 88.4524 77.0371 88.1735C76.8399 87.8928 76.5942 87.7303 76.3003 87.6857C76.006 87.641 75.5617 87.6957 74.9678 87.8496C73.8807 88.1246 73.0207 88.1853 72.3871 88.0317C71.7535 87.8785 71.2235 87.4978 70.7971 86.8903C70.4492 86.3949 70.2703 85.8703 70.2599 85.3171C70.2467 84.7632 70.3882 84.2303 70.6849 83.7185C70.9835 83.2057 71.4046 82.7582 71.9485 82.3764ZM77.6046 77.8585C78.5274 76.9024 79.4428 76.366 80.3507 76.2499C81.2585 76.1335 82.1096 76.4589 82.9039 77.2257C83.7257 78.0189 84.116 78.8707 84.0753 79.7814C84.031 80.6917 83.5953 81.576 82.7674 82.4332L82.2574 82.9614L84.631 85.2524L82.7882 87.1614L75.4564 80.0839L77.6046 77.8585ZM81.2349 81.2989C81.5667 80.9553 81.7171 80.6157 81.686 80.2799C81.6567 79.946 81.4346 79.5785 81.0192 79.1782C80.6535 78.8249 80.3057 78.6389 79.976 78.6196C79.6478 78.6021 79.3146 78.7685 78.9764 79.1189L78.6389 79.4682L80.8974 81.6485L81.2349 81.2989ZM82.4753 70.9717C83.1978 69.7978 84.1392 69.1342 85.2992 68.9821C86.4592 68.8296 87.7842 69.2121 89.2746 70.1292C90.7489 71.0364 91.6849 72.0485 92.0832 73.1653C92.4796 74.281 92.3189 75.4217 91.6014 76.5878C90.8839 77.7539 89.9432 78.4117 88.7789 78.5617C87.6128 78.7103 86.2846 78.3264 84.7946 77.4092C83.3307 76.5082 82.3982 75.5014 81.9971 74.3885C81.5982 73.2767 81.7578 72.1382 82.4753 70.9717ZM84.0974 71.9703C83.821 72.4192 83.8428 72.8824 84.1628 73.3596C84.4814 73.8389 85.1735 74.4064 86.2389 75.0621C87.3142 75.7239 88.1378 76.0889 88.7092 76.1574C89.2796 76.2278 89.7028 76.0385 89.9792 75.5896C90.1739 75.2735 90.2349 74.9639 90.1628 74.6614C90.0907 74.3589 89.8674 74.0314 89.4932 73.6789C89.1174 73.3282 88.5632 72.9274 87.8303 72.4764C86.7649 71.8207 85.9471 71.4578 85.3767 71.3871C84.8064 71.3167 84.3799 71.511 84.0974 71.9703ZM84.8903 67.4385L87.3046 60.5796L89.1053 61.5107L88.4092 63.4878L96.1278 66.2049L95.2467 68.7078L87.5282 65.9907L86.7839 68.1049L84.8903 67.4385Z" fill="white"/>
<path d="M0.990234 37.3996L3.32738 30.7089L5.08702 31.6093L4.41309 33.5379L11.9409 36.1675L11.0881 38.6086L3.56059 35.9789L2.83881 38.045L0.990234 37.3996ZM16.8049 26.8014L15.5159 29.0429L11.9245 26.9775L10.8706 28.81L14.4617 30.8754L13.1709 33.12L4.56166 28.1682L5.85273 25.9239L9.13631 27.8125L10.1902 25.98L6.90666 24.0914L8.19595 21.8496L16.8049 26.8014ZM10.4109 19.0139L14.2645 14.6375L15.4577 16.0518L13.4959 18.28L15.1249 19.7146L16.8524 17.7525L18.1942 18.9339L16.4667 20.8961L18.192 22.4146L20.2874 20.0346L21.6717 21.2536L17.8652 25.5771L10.4109 19.0139ZM19.7049 10.0425L25.6713 6.21821L26.5009 8.01214L24.7809 9.11464L29.0838 15.8275L26.907 17.2229L22.6042 10.51L20.7617 11.6911L19.7049 10.0425ZM31.0574 3.54964C31.702 3.28929 32.312 3.16143 32.8877 3.16607C33.4656 3.16964 34.0306 3.29607 34.5824 3.545L34.0402 5.21393C33.2742 4.94679 32.5952 4.93286 32.0034 5.17214C31.6856 5.30036 31.4727 5.47179 31.3656 5.68607C31.2552 5.89893 31.252 6.13357 31.3556 6.39036C31.4274 6.56786 31.5309 6.69821 31.6663 6.78107C31.8042 6.86321 32.0009 6.9175 32.2567 6.94429C32.5134 6.96821 32.8813 6.97607 33.3606 6.96893C34.027 6.96464 34.5849 7.01607 35.0334 7.12321C35.4842 7.22929 35.8734 7.42893 36.2013 7.7225C36.5313 8.015 36.8052 8.43107 37.0231 8.97036C37.2584 9.55357 37.327 10.1239 37.2284 10.6818C37.1306 11.2414 36.8709 11.7507 36.4492 12.2093C36.0299 12.6668 35.4613 13.0404 34.7445 13.33C33.3938 13.8757 32.1099 13.8754 30.892 13.3296L31.532 11.5904C31.982 11.7379 32.3981 11.8207 32.7806 11.8396C33.1638 11.8607 33.5367 11.7982 33.8984 11.6521C34.2688 11.5025 34.5117 11.2957 34.6274 11.0325C34.7413 10.7721 34.7359 10.4875 34.6113 10.1782C34.4863 9.86893 34.2899 9.66036 34.0217 9.55179C33.7509 9.44429 33.3159 9.39964 32.7163 9.4175C31.6252 9.4375 30.7959 9.30429 30.2292 9.01821C29.6631 8.73429 29.2438 8.25571 28.972 7.5825C28.7513 7.03679 28.6963 6.49929 28.8063 5.97C28.9174 5.44321 29.1695 4.96893 29.5627 4.5475C29.9584 4.125 30.4567 3.7925 31.0574 3.54964ZM46.4785 10.0193L43.9395 10.5086L43.1556 6.44036L41.0799 6.84036L41.8634 10.9086L39.3209 11.3982L37.442 1.64607L39.9845 1.15607L40.7013 4.87607L42.777 4.47607L42.0602 0.756429L44.5995 0.267143L46.4785 10.0193ZM47.9713 0.0689286L50.5599 0L50.8242 9.92821L48.2359 9.99714L47.9713 0.0689286ZM57.3709 10.7504L56.1924 6.86107L55.6413 6.78286L55.1234 10.4314L52.5599 10.0679L53.9552 0.234643L57.0281 0.670714C59.6409 1.04143 60.8027 2.24536 60.5134 4.28214C60.3381 5.51821 59.6792 6.32536 58.5363 6.70286L60.1313 11.1421L57.3709 10.7504ZM56.2656 2.3825L55.8884 5.04071L56.4677 5.12321C56.9009 5.18464 57.2306 5.11786 57.4563 4.92321C57.6795 4.73036 57.8252 4.39286 57.8938 3.91036C57.9552 3.47714 57.8931 3.14107 57.7074 2.90214C57.5188 2.66536 57.1974 2.51464 56.7431 2.45036L56.2656 2.3825ZM63.6399 1.9075L70.3195 4.27571L69.4113 6.03107L67.4856 5.34821L64.8209 12.8636L62.3838 11.9993L65.0484 4.48429L62.9856 3.75286L63.6399 1.9075ZM79.5245 9.35214C80.092 9.75357 80.5295 10.1979 80.837 10.6846C81.1463 11.1725 81.3452 11.7161 81.4345 12.315L79.7374 12.7611C79.5477 11.9725 79.1924 11.3939 78.6713 11.0254C78.3913 10.8271 78.1324 10.7411 77.8942 10.7664C77.6552 10.7889 77.4559 10.9129 77.2963 11.1389C77.1856 11.2954 77.132 11.4529 77.1356 11.6118C77.141 11.7718 77.2017 11.9668 77.317 12.1964C77.4363 12.4254 77.6281 12.7393 77.8934 13.1382C78.2574 13.6968 78.5156 14.1939 78.6681 14.6289C78.8227 15.0657 78.8652 15.5011 78.7952 15.9357C78.7277 16.3714 78.5256 16.8268 78.1899 17.3014C77.8267 17.815 77.3838 18.1811 76.8613 18.3996C76.3377 18.62 75.7688 18.6768 75.1552 18.57C74.5435 18.4643 73.9217 18.1886 73.2906 17.7418C72.1013 16.9007 71.407 15.8204 71.2081 14.5007L73.017 14.0989C73.1363 14.5568 73.2913 14.9518 73.4824 15.2839C73.672 15.6179 73.926 15.8975 74.2445 16.1229C74.5706 16.3536 74.876 16.4464 75.1599 16.4011C75.4406 16.3564 75.6774 16.1979 75.8699 15.9257C76.0624 15.6536 76.1317 15.375 76.0781 15.0911C76.022 14.8054 75.8245 14.415 75.4852 13.92C74.8784 13.0132 74.5424 12.2436 74.4763 11.6121C74.4092 10.9821 74.5852 10.3711 75.0045 9.77857C75.3445 9.29786 75.7667 8.96071 76.2713 8.76714C76.7745 8.57571 77.3099 8.53143 77.877 8.63464C78.4463 8.73893 78.9956 8.97786 79.5245 9.35214ZM86.6538 15.8571C87.5506 16.7925 88.0381 17.7043 88.1167 18.5921C88.1967 19.4786 87.8474 20.295 87.0688 21.0411C86.2649 21.8121 85.4206 22.1596 84.5356 22.0839C83.651 22.0086 82.8067 21.5518 82.0034 20.7136L81.5099 20.1989L79.1902 22.4229L77.3981 20.5539L84.5674 13.6807L86.6538 15.8571ZM83.1652 19.2607C83.4895 19.5986 83.8156 19.7593 84.1434 19.7429C84.4702 19.7246 84.8356 19.5214 85.2402 19.1336C85.5988 18.79 85.7938 18.4589 85.8256 18.14C85.8542 17.8211 85.7031 17.4893 85.3724 17.1446L85.0484 16.8068L82.8413 18.9225L83.1652 19.2607ZM93.5613 24.5721C94.2624 25.7182 94.422 26.8289 94.0406 27.905C93.6592 28.9807 92.7413 29.9636 91.287 30.8532C89.8488 31.7329 88.5567 32.0993 87.4102 31.9521C86.2642 31.805 85.3431 31.1625 84.6474 30.0246C83.9513 28.8871 83.7963 27.7789 84.1817 26.7007C84.567 25.6221 85.4867 24.6382 86.9413 23.7486C88.3713 22.8736 89.6584 22.5079 90.802 22.6511C91.9456 22.7943 92.8656 23.4346 93.5613 24.5721ZM91.976 25.5421C91.7081 25.1043 91.2952 24.9189 90.7374 24.9857C90.1817 25.0514 89.3831 25.4025 88.3424 26.0393C87.2935 26.6807 86.6131 27.2339 86.3017 27.6989C85.9881 28.1654 85.9652 28.6171 86.2327 29.055C86.4217 29.3636 86.6638 29.5536 86.9599 29.625C87.2545 29.6943 87.637 29.6443 88.1077 29.4757C88.577 29.305 89.1699 29.0007 89.8859 28.5625C90.9267 27.9261 91.6031 27.375 91.9145 26.91C92.2295 26.4461 92.2499 25.99 91.976 25.5421ZM96.6706 30.8339L99.0102 37.5236L97.0731 37.9154L96.3985 35.9868L88.8717 38.6189L88.0181 36.1782L95.5449 33.5461L94.8227 31.4804L96.6706 30.8339Z" fill="white"/>
<path d="M1.39258 51.1071C1.39258 48.9571 3.13544 47.2142 5.28544 47.2142C7.43544 47.2142 9.17829 48.9571 9.17829 51.1071C9.17829 53.2571 7.43544 54.9999 5.28544 54.9996C3.13544 54.9996 1.39258 53.2567 1.39258 51.1071ZM90.7786 51.1071C90.7786 48.9571 92.5215 47.2142 94.6715 47.2142C96.8215 47.2142 98.5644 48.9571 98.5644 51.1071C98.5644 53.2571 96.8215 54.9999 94.6715 54.9996C92.5215 54.9996 90.7786 53.2567 90.7786 51.1071Z" fill="white"/>
</svg>
