<svg width="100" height="100" viewBox="0 0 100 100" fill="none" xmlns="http://www.w3.org/2000/svg">
  <path d="M7.53906 1.77734C6.32812 2.07031 4.55078 3.10547 3.69141 4.04297C3.26172 4.51172 2.61719 5.48828 2.28516 6.21094L1.66016 7.51953V26.5625V45.6055L2.28516 46.9141C3.14453 48.7305 4.23828 49.8633 6.01562 50.7422L7.5 51.4648L16.25 51.5234L25 51.582V56.25V60.9375H23.9062C22.207 60.9375 21.3086 61.2891 20.2148 62.4023C19.1016 63.4961 18.75 64.3945 18.75 66.0938V67.1875H10.6445H2.51953L2.05078 67.6758L1.5625 68.1445V82.8125V97.4805L2.05078 97.9492L2.51953 98.4375H50H97.4805L97.9492 97.9492L98.4375 97.4805V82.8125V68.1445L97.9492 67.6758C97.5586 67.2656 97.2852 67.1875 96.3867 67.1875H95.3125V59.8633V52.5195L94.8242 52.0508C94.4336 51.6406 94.1602 51.5625 93.2617 51.5625H92.1875V43.457V35.332L91.6992 34.8633C91.4062 34.5508 91.0156 34.375 90.6055 34.375C90.0781 34.375 89.668 34.6875 87.9688 36.3672L85.9375 38.3594L83.9062 36.3672C81.2109 33.7109 81.2891 33.7109 78.5938 36.3672L76.5625 38.3594L74.5312 36.3672C72.832 34.6875 72.4219 34.375 71.8945 34.375C71.4844 34.375 71.0938 34.5508 70.8008 34.8633L70.3125 35.332V43.457V51.5625H69.2383C68.3398 51.5625 68.0664 51.6406 67.6758 52.0508L67.1875 52.5195V59.8633V67.1875H58.5938H50V66.0938C50 64.5117 49.6484 63.5742 48.6914 62.5C47.6953 61.3867 46.582 60.9375 44.8828 60.9375H43.75V56.25V51.582L52.5 51.5234L61.25 51.4648L62.7344 50.7422C64.5117 49.8633 65.6055 48.7305 66.4648 46.9141L67.0898 45.6055V26.5625V7.51953L66.4648 6.21094C65.6055 4.39453 64.5117 3.26172 62.7344 2.38281L61.25 1.66016L34.7852 1.62109C19.2188 1.60156 7.98828 1.67969 7.53906 1.77734ZM60.8203 4.92188C61.8945 5.23438 63.5156 6.85547 63.8281 7.92969C64.0039 8.53516 64.0625 12.5586 64.0625 23.9062V39.0625H34.375H4.6875V23.9062C4.6875 12.5586 4.74609 8.53516 4.92188 7.92969C5.21484 6.93359 6.85547 5.25391 7.8125 4.94141C8.84766 4.60938 59.7266 4.60938 60.8203 4.92188ZM83.3008 40.2344C85.8203 42.6953 85.9961 42.7344 87.8125 40.9766L89.0625 39.7852V45.6641V51.5625H81.25H73.4375V45.6641V39.7852L74.6875 40.9766C76.5039 42.7344 76.6992 42.6953 79.1797 40.2344C80.2734 39.1602 81.1914 38.2812 81.2305 38.2812C81.2891 38.2812 82.2266 39.1602 83.3008 40.2344ZM64.0625 43.2812C64.0625 43.8867 63.9648 44.7461 63.8281 45.1953C63.5156 46.2695 61.8945 47.8906 60.8203 48.2031C59.6484 48.5352 9.10156 48.5352 7.92969 48.2031C6.85547 47.8906 5.23438 46.2695 4.92188 45.1953C4.78516 44.7461 4.6875 43.8867 4.6875 43.2812V42.1875H34.375H64.0625V43.2812ZM40.625 56.25V60.9375H34.375H28.125V56.25V51.5625H34.375H40.625V56.25ZM92.1875 60.9375V67.1875H81.25H70.3125V60.9375V54.6875H81.25H92.1875V60.9375ZM46.3867 64.5508C46.7969 64.9414 46.875 65.2148 46.875 66.1133V67.1875H34.375H21.875V66.1133C21.875 65.2148 21.9531 64.9414 22.3633 64.5508L22.832 64.0625H34.375H45.918L46.3867 64.5508ZM95.3125 82.8125V95.3125H50H4.6875V82.8125V70.3125H50H95.3125V82.8125Z" fill="black"/>
  <path d="M32.8125 9.45312V11.1133L31.7773 11.582C30.4883 12.168 29.4727 13.1641 28.7695 14.5117C28.3008 15.3906 28.2227 15.7422 28.2227 17.1875C28.2422 18.6914 28.3008 18.9648 28.8867 20.0781C29.9219 21.9922 31.6016 23.125 33.7305 23.3594C35.4102 23.5352 36.0547 23.7695 36.6992 24.5117C38.6719 26.7578 36.6602 30.1562 33.6914 29.6094C32.6953 29.4141 31.6797 28.4375 31.4062 27.4219L31.1719 26.5625H29.6289H28.0664L28.1836 27.4414C28.457 29.3945 29.9219 31.3281 31.7773 32.168L32.8125 32.6367V34.2969V35.9375H34.375H35.9375V34.2969V32.6367L36.9727 32.168C38.2617 31.582 39.2773 30.5859 39.9805 29.2383C40.4492 28.3594 40.5273 28.0078 40.5273 26.5625C40.5078 25.0586 40.4492 24.7852 39.8633 23.6719C38.8281 21.7578 37.1484 20.625 35.0195 20.3906C33.3398 20.2148 32.6953 19.9805 32.0508 19.2383C30.0781 16.9922 32.0898 13.5938 35.0586 14.1406C36.0547 14.3359 37.0703 15.3125 37.3437 16.3281L37.5781 17.1875H39.1211H40.6836L40.5664 16.3086C40.293 14.3555 38.8281 12.4219 36.9727 11.582L35.9375 11.1133V9.45312V7.8125H34.375H32.8125V9.45312Z" fill="#00DFC0"/>
  <path d="M76.5625 46.875V48.4375H81.25H85.9375V46.875V45.3125H81.25H76.5625V46.875Z" fill="#00DFC0"/>
  <path d="M85.9375 59.375V60.9375H87.5H89.0625V59.375V57.8125H87.5H85.9375V59.375Z" fill="#00DFC0"/>
  <path d="M8.30078 73.9258L7.8125 74.3945V82.8125V91.2305L8.30078 91.6992L8.76953 92.1875H31.25H53.7305L54.1992 91.6992L54.6875 91.2305V82.8125V74.3945L54.1992 73.9258L53.7305 73.4375H31.25H8.76953L8.30078 73.9258ZM19.2383 79.4922C20.0391 81.0938 20.8594 82.5 21.0742 82.6172C21.6016 82.8906 40.8984 82.8906 41.4258 82.6172C41.6406 82.5 42.4609 81.0938 43.2617 79.4922L44.7266 76.5625H48.1445H51.5625V82.8125V89.0625H31.25H10.9375V82.8125V76.5625H14.3555H17.7734L19.2383 79.4922ZM40.4297 78.125L39.6484 79.6875H31.25H22.8516L22.0703 78.125L21.2891 76.5625H31.25H41.2109L40.4297 78.125Z" fill="black"/>
  <path d="M58.3007 73.9258C57.8124 74.3945 57.8124 74.4336 57.8124 78.125C57.8124 83.1445 57.4804 82.8125 62.4999 82.8125C67.5194 82.8125 67.1874 83.1445 67.1874 78.125C67.1874 73.1055 67.5194 73.4375 62.4999 73.4375C58.8085 73.4375 58.7694 73.4375 58.3007 73.9258ZM64.0624 78.125V79.6875H62.4999H60.9374V78.125V76.5625H62.4999H64.0624V78.125Z" fill="black"/>
  <path d="M70.8007 73.9258C70.3124 74.3945 70.3124 74.4336 70.3124 78.125C70.3124 83.1445 69.9804 82.8125 74.9999 82.8125C80.0194 82.8125 79.6874 83.1445 79.6874 78.125C79.6874 73.1055 80.0194 73.4375 74.9999 73.4375C71.3085 73.4375 71.2694 73.4375 70.8007 73.9258ZM76.5624 78.125V79.6875H74.9999H73.4374V78.125V76.5625H74.9999H76.5624V78.125Z" fill="black"/>
  <path d="M83.3007 73.9258C82.8124 74.3945 82.8124 74.4336 82.8124 78.125C82.8124 83.1445 82.4804 82.8125 87.4999 82.8125C92.5194 82.8125 92.1874 83.1445 92.1874 78.125C92.1874 73.1055 92.5194 73.4375 87.4999 73.4375C83.8085 73.4375 83.7694 73.4375 83.3007 73.9258ZM89.0624 78.125V79.6875H87.4999H85.9374V78.125V76.5625H87.4999H89.0624V78.125Z" fill="black"/>
  <path d="M57.8125 90.625V92.1875H75H92.1875V90.625V89.0625H75H57.8125V90.625Z" fill="black"/>
  <path d="M82.8125 21.0938V26.5625H84.375H85.9375V21.0938V15.625H84.375H82.8125V21.0938Z" fill="#00DFC0"/>
  <path d="M76.5625 25V31.25H78.125H79.6875V25V18.75H78.125H76.5625V25Z" fill="#00DFC0"/>
</svg>



