<svg width="100" height="100" viewBox="0 0 100 100" fill="none" xmlns="http://www.w3.org/2000/svg">
<g clip-path="url(#clip0_734_106)">
<path d="M3.41806 0.234375C2.51962 0.722656 2.53915 0.566406 2.53915 10.4883V19.9219L1.89462 20.1953C1.504 20.3516 1.15244 20.6836 1.01572 21.0156C0.839936 21.4453 0.781342 25.4102 0.820405 36.9727L0.878999 52.3828L1.42587 52.8516C1.85556 53.2227 2.18759 53.3203 3.02744 53.3203H4.08212L4.14072 56.1719C4.19931 59.0234 4.19931 59.0234 4.74619 59.4922C5.17587 59.8633 5.5079 59.9609 6.34775 59.9609H7.40244L7.46103 73.5742C7.53915 86.8164 7.53915 87.2461 7.94931 88.7109C9.16025 93.0273 12.0704 96.582 15.9181 98.4375C18.2813 99.5703 19.629 99.8828 22.461 99.8828C25.3907 99.9023 26.6407 99.6094 29.297 98.3008C30.879 97.5391 31.4259 97.1289 33.0274 95.5273C34.629 93.9258 35.0392 93.3789 35.8009 91.7969C37.5587 88.2422 37.3829 92.2656 37.5001 50.9766L37.5977 14.3555L38.1446 13.2422C38.7501 12.0312 39.629 11.1719 41.0157 10.4883C42.3243 9.86328 44.4727 9.90234 45.8009 10.5859C47.0509 11.25 48.1056 12.3438 48.672 13.5742L49.1212 14.5508L49.2188 51.2695L49.3165 87.9883L49.8634 89.5508C51.5626 94.3555 54.7852 97.5781 59.5704 99.2578L61.4259 99.9023H67.4806H73.5352L75.3907 99.2578C80.6446 97.4414 84.0821 93.6914 85.3907 88.418L85.8009 86.7188H86.7579C87.9884 86.7188 88.7696 86.3086 89.0431 85.5273C89.1798 85.1367 89.2579 83.3203 89.2579 80.8594V76.7969L91.2306 76.7188C93.1056 76.6406 93.2423 76.6211 93.672 76.1133C94.1407 75.5664 94.1407 75.5078 94.1407 71.4648V67.3633L94.9806 66.543C95.4298 66.0938 96.5626 64.9219 97.5196 63.9258L99.2188 62.1484V43.457C99.2188 22.9102 99.2774 23.8867 98.0274 23.457C97.6759 23.3398 97.0704 23.2422 96.6602 23.2422H95.8985L95.8595 12.0898L95.8009 0.9375L95.254 0.46875L94.7071 0H80.8399H66.9532L66.3868 0.566406L65.8204 1.13281V12.1875V23.2422H65.0392C64.0431 23.2422 62.9884 23.6719 62.7149 24.1797C62.5587 24.4727 62.5001 30.3125 62.5001 43.4766V62.3633L65.0392 64.9414L67.5782 67.5V71.6016V75.7227L68.0665 76.1719C68.5157 76.6016 68.7892 76.6602 70.5079 76.7188L72.4415 76.7969L72.5001 81.2695C72.5587 85.5469 72.5782 85.7422 72.9884 86.1523C73.2618 86.4453 73.7306 86.6016 74.3946 86.6797C75.0001 86.7383 75.3907 86.8555 75.3907 87.0117C75.3907 87.4219 73.8087 89.0625 72.9688 89.5117C72.2267 89.9023 71.836 89.9414 68.0274 90C64.629 90.0586 63.6915 90.0195 62.7931 89.7461C61.4454 89.3555 60.254 88.3398 59.6485 87.0117L59.1798 86.0352V50.4297C59.1798 25.6836 59.1212 14.3945 58.9649 13.4375C58.0079 7.20703 53.3204 2.05078 47.1681 0.449219C45.1173 -0.078125 41.211 -0.0195312 39.1993 0.546875C33.8868 2.07031 29.961 5.89844 28.1056 11.4258L27.6368 12.793L27.5392 49.5117L27.4415 86.2305L26.9923 87.1484C26.0743 89.0039 23.8673 90.2344 21.9142 89.9609C20.8009 89.8047 19.2188 88.9453 18.6329 88.1836C17.5392 86.7578 17.5782 87.2266 17.5782 73.0469V59.9609H18.6329C19.4923 59.9609 19.8243 59.8633 20.254 59.4922C20.8009 59.0234 20.8009 59.0234 20.8595 56.1719L20.9181 53.3203H21.9727C22.8126 53.3203 23.1446 53.2227 23.5743 52.8516L24.1212 52.3828L24.1798 36.9727C24.2188 25.4102 24.1602 21.4453 23.9845 21.0156C23.8477 20.6836 23.4962 20.3516 23.1056 20.1953L22.461 19.9219V10.5664C22.461 5.41016 22.4024 1.05469 22.3438 0.878906C22.0118 0.0390625 21.5626 0 12.461 0C6.58212 0.0195312 3.6915 0.078125 3.41806 0.234375ZM9.17978 6.15234C9.17978 8.92578 9.19931 9.02344 9.66806 9.47266C10.0587 9.88281 10.3321 9.96094 11.3282 9.96094H12.5001V11.6016V13.2422L11.2892 13.3203C10.2931 13.3984 10.0196 13.4961 9.629 13.9453C9.19931 14.4531 9.17978 14.6289 9.17978 17.207V19.9219H7.51962H5.85947V11.6211V3.32031H7.51962H9.17978V6.15234ZM19.1407 11.6211V19.9219H15.8204H12.5001V18.2617V16.6016H13.672C14.6681 16.6016 14.9415 16.5234 15.3321 16.1133C15.8204 15.6445 15.8204 15.625 15.8204 11.7188V7.77344L15.254 7.20703C14.7462 6.71875 14.5313 6.64062 13.5938 6.64062H12.5001V4.98047V3.32031H15.8204H19.1407V11.6211ZM45.8399 3.63281C50.3321 4.55078 53.7892 7.69531 55.3126 12.207L55.7618 13.5742L55.8595 50.293L55.9571 87.0117L56.5821 88.3398C57.7149 90.7227 59.7267 92.4023 62.2071 93.0664C63.6134 93.418 70.879 93.4766 72.5001 93.1445C74.9806 92.6172 77.2267 90.8398 78.3009 88.5938C78.6329 87.9102 78.9063 87.207 78.9063 87.0312C78.9063 86.7773 79.1798 86.7188 80.6446 86.7188H82.3829L82.2071 87.4805C81.8751 88.9844 81.2306 90.3906 80.2735 91.7578C78.8087 93.8477 77.0509 95.1367 74.4727 96.0352C73.0079 96.543 72.7735 96.5625 68.1642 96.6406C62.8517 96.7188 61.5235 96.5625 59.336 95.5664C57.0704 94.5508 54.8829 92.4609 53.8087 90.2734C52.5392 87.7148 52.6368 90.9961 52.5392 50.6836L52.4415 13.9648L51.9727 12.793C50.9962 10.3711 49.4923 8.67188 47.4024 7.65625C42.1681 5.07812 35.9571 7.94922 34.4727 13.5742C34.2188 14.5898 34.1798 18.9844 34.1798 50.3906C34.1798 80.9961 34.1407 86.2305 33.8868 87.4023C32.9688 91.7969 29.297 95.4688 24.9024 96.3867C18.8087 97.6562 12.9298 94.0234 11.1915 87.8906C10.8595 86.7188 10.8399 85.625 10.8399 73.3398V60.0586H12.5001H14.1602L14.2579 73.6328L14.3556 87.207L15.0196 88.5742C16.2306 91.0156 18.4376 92.6953 21.1524 93.1836C25.4298 93.9844 29.8438 90.8984 30.6642 86.543C30.7813 85.8594 30.8595 73.1445 30.8595 49.9023C30.8595 15.1367 30.8595 14.2773 31.2501 12.8125C32.6368 7.34375 37.5782 3.39844 43.1251 3.33984C43.8087 3.32031 45.0196 3.45703 45.8399 3.63281ZM92.5782 13.2812V23.2422H80.8595H69.1407V13.2812V3.32031H80.8595H92.5782V13.2812ZM20.8595 36.6602L20.8985 50H12.5001H4.10165V36.7578C4.10165 29.4727 4.16025 23.4375 4.23837 23.3789C4.29697 23.3008 8.0665 23.2617 12.5782 23.2812L20.8009 23.3398L20.8595 36.6602ZM95.8985 43.8086V60.8398L93.6329 63.0859C92.4024 64.3164 91.2501 65.5664 91.0938 65.8594C90.879 66.25 90.8204 67.2266 90.8204 69.8242V73.2422H80.879H70.9181L70.8595 69.6289L70.8009 66.0156L68.3204 63.5156L65.8204 61.0352V43.8867V26.7578H80.8595H95.8985V43.8086ZM17.5782 54.9805V56.6406H12.5001H7.42197V54.9805V53.3203H12.5001H17.5782V54.9805ZM85.7423 80.0781V83.3984L80.8204 83.3594L75.879 83.3008L75.8204 80.0195L75.7813 76.7578H80.7618H85.7423V80.0781Z" fill="black"/>
<path d="M72.4609 13.3789V15.0391H75.7812H79.1016V13.3789V11.7188H75.7812H72.4609V13.3789Z" fill="#00DFC0"/>
<path d="M82.4609 13.3203L82.5195 14.9414H85.8398H89.1602L89.2188 13.3203L89.2773 11.7188H85.8398H82.4023L82.4609 13.3203Z" fill="#00DFC0"/>
<path d="M79.1016 40.2344C79.1016 44.9609 79.0625 48.8281 79.0039 48.8281C78.9453 48.8281 77.4609 48.1055 75.6836 47.2266L72.4609 45.6055V41.1719V36.7187H70.8008H69.1406V41.7773C69.1406 44.5898 69.2188 47.0703 69.3359 47.3437C69.4922 47.7539 70.4688 48.3203 74.3164 50.2344L79.1016 52.6367V54.0234C79.1016 55.3125 79.0625 55.4297 78.6719 55.5469C78.0859 55.6836 76.8164 56.9336 76.3672 57.8125C75.4102 59.707 75.7812 61.9141 77.3047 63.457C78.7695 64.9219 80.3906 65.332 82.3438 64.7461C84.375 64.1406 85.7422 62.2656 85.7422 60.0391C85.7422 59.375 85.6055 58.5156 85.4492 58.1445C85.0391 57.168 84.0625 56.1133 83.1641 55.6445L82.4219 55.2539L82.4609 51.5234L82.5195 47.793L86.3281 46.2695C88.6328 45.3516 90.2734 44.5898 90.4688 44.3164C90.7812 43.9648 90.8203 43.4375 90.8203 40.3125V36.7187H89.1602H87.5195L87.4609 39.4922L87.4023 42.2656L85.2539 43.1055C84.082 43.5742 82.9492 44.0039 82.7734 44.0625C82.4414 44.1601 82.4219 43.7891 82.4219 37.9101V31.6406H80.7617H79.1016V40.2344ZM81.9141 58.8086C82.8516 59.5508 82.4609 61.2305 81.25 61.6211C80.2539 61.9336 78.9258 60.6836 79.2188 59.707C79.5898 58.457 80.918 58.0078 81.9141 58.8086Z" fill="#00DFC0"/>
</g>
<defs>
<clipPath id="clip0_734_106">
<rect width="100" height="100" fill="white"/>
</clipPath>
</defs>
</svg>
