<svg width="100" height="100" viewBox="0 0 100 100" fill="none" xmlns="http://www.w3.org/2000/svg">
<g clip-path="url(#clip0_734_111)">
<path d="M70.7227 0.332008C69.7266 0.683571 68.5938 1.73826 68.0664 2.83201C67.6953 3.5742 67.6758 4.04295 67.6758 11.3281C67.6758 18.8672 67.6758 19.0625 68.1055 19.8242C68.3398 20.2539 68.8086 20.8789 69.1797 21.2304C70.293 22.3047 71.0938 22.5195 74.082 22.6172L76.7773 22.6953L76.6797 23.2226C76.3281 24.9219 75.1758 31.8945 75.2344 32.0312C75.2734 32.1289 78.7305 30.0586 82.9102 27.4219L90.5273 22.6562H92.8125C94.0625 22.6562 95.5469 22.5586 96.0938 22.4414C97.4414 22.1484 98.6133 21.2304 99.2578 19.9414L99.8047 18.8672V11.25C99.8047 4.25779 99.7656 3.55466 99.4336 2.83201C98.9844 1.83591 97.5195 0.527321 96.5234 0.234352C95.9766 0.0585709 92.4023 -2.28882e-05 83.6719 0.0195084C73.3008 0.0195084 71.4648 0.0781021 70.7227 0.332008ZM96.1914 3.80857L96.6797 4.27732V11.1328C96.6797 18.125 96.6406 18.5351 95.918 19.082C95.7031 19.2383 94.668 19.3164 92.6953 19.3359H89.7656L84.7266 22.4804C81.9531 24.2187 79.6484 25.6054 79.6094 25.5664C79.5703 25.5273 79.7852 24.1015 80.0781 22.4023L80.6055 19.3359H76.2305H71.8555L71.3867 18.8476L70.8984 18.3789V11.3086C70.8984 4.29685 70.8984 4.21873 71.3281 3.76951L71.7383 3.32029H83.7305H95.7227L96.1914 3.80857Z" fill="#00DFC0"/>
<path d="M74.0625 8.04688L74.1211 9.66797L83.75 9.72656L93.3594 9.76562V8.10547V6.44531H83.6914H74.0039L74.0625 8.04688Z" fill="#00DFC0"/>
<path d="M74.0625 14.4922L74.1211 16.1133L80.5273 16.1719L86.9141 16.2109V14.5508V12.8906H80.4688H74.0039L74.0625 14.4922Z" fill="#00DFC0"/>
<path d="M90.2344 14.5508V16.2109H91.7969H93.3594V14.5508V12.8906H91.7969H90.2344V14.5508Z" fill="#00DFC0"/>
<path d="M45.6056 4.99999C43.5938 5.21484 39.8243 5.93749 37.9493 6.46484C30.3126 8.61327 23.6329 12.5 18.0665 18.0664C12.5196 23.5937 8.6915 30.0391 6.56259 37.4219L5.91806 39.707L4.49228 37.3242C3.71103 36.0156 2.98837 34.9023 2.89071 34.8437C2.77353 34.7656 0.78134 35.8203 0.214933 36.25C0.15634 36.3086 4.5704 43.8086 5.64462 45.4883C5.78134 45.6836 6.83603 45.1367 10.4688 42.9687C13.047 41.4258 15.1563 40.1562 15.1954 40.1367C15.2345 40.0977 13.8282 37.6562 13.5938 37.3633C13.5938 37.3437 12.6563 37.8906 11.5235 38.5742C10.3907 39.2773 9.41415 39.8437 9.33603 39.8437C9.14071 39.8437 9.92196 37.207 10.8399 34.8437C15.7423 22.1875 26.3673 12.793 39.5704 9.37499C46.0938 7.69531 53.6134 7.67577 60.2149 9.37499L62.3048 9.90234L62.7735 8.41796C63.1251 7.32421 63.1837 6.89452 63.0079 6.79687C62.5977 6.56249 59.629 5.85937 57.2852 5.44921C55.5079 5.13671 54.004 5.01952 50.6837 4.98046C48.3204 4.9414 46.0352 4.96093 45.6056 4.99999Z" fill="black"/>
<path d="M46.7773 16.3477C42.7734 16.9727 38.6328 18.9844 35.6054 21.7578C32.9101 24.2383 30.5859 28.1445 29.5508 31.9727L29.0234 33.8867L29.0039 41.8945V49.9024L29.5117 50.9766C30.2539 52.5586 31.1133 53.4375 32.6562 54.1797L34.0429 54.8438L34.5703 56.5234C34.8828 57.4609 35.5078 58.8867 35.9765 59.707C36.914 61.3867 39.375 64.0235 40.8594 64.9414C41.5234 65.3516 41.7969 65.6641 41.7969 65.957C41.7969 66.4453 42.2656 66.3281 34.9218 67.6758C32.2851 68.1445 29.6289 68.7305 29.0429 68.9453C25.9179 70.1172 23.5351 72.5977 22.3437 75.9375C22.0508 76.7774 21.7578 77.5 21.6797 77.5781C21.6211 77.6758 20.2734 76.4258 18.6914 74.8438C14.8047 70.918 14.7851 71.4844 19.1797 67.0508L22.5586 63.6719L16.6015 57.7149L10.6445 51.7383L6.3281 56.0938C2.69528 59.7656 1.91403 60.6445 1.40622 61.7188C0.449191 63.711 0.136691 65.1953 0.234347 67.461C0.332004 69.6485 0.74216 71.0547 1.79685 72.7735C2.207 73.457 6.6406 78.0274 14.6289 85.9961C26.0547 97.3633 26.9531 98.2031 28.2031 98.8086C31.7187 100.469 35.9961 100.293 39.0625 98.3594C39.5898 98.0274 42.0508 95.8984 44.5117 93.6524L49.0039 89.5508L47.7929 88.3399L46.6015 87.1094H63.8281C73.3008 87.1094 81.0547 87.0508 81.0547 86.9531C81.0547 86.4453 77.0703 75 76.5429 73.9844C75.7031 72.4219 73.6914 70.4102 72.1679 69.5899C70.5469 68.75 69.5703 68.4961 63.9648 67.4805C57.4804 66.3086 58.0078 66.4453 58.0273 65.957C58.0273 65.6641 58.4765 65.1953 59.5117 64.4531C60.332 63.8672 61.3672 62.9297 61.8554 62.3828L62.7148 61.3672L65 61.2891C66.8359 61.2305 67.4414 61.1328 68.0664 60.8008C69.0625 60.2735 69.8437 59.4922 70.3906 58.4961C70.8008 57.7149 70.8008 57.6172 70.8008 46.1914C70.8008 35.8399 70.7617 34.5117 70.4492 33.0469C68.7109 24.9805 62.9883 18.9258 55.0781 16.7774C53.9648 16.4649 52.8711 16.3672 50.4883 16.3086C48.7695 16.2695 47.1094 16.2891 46.7773 16.3477ZM52.7929 19.6289C59.1797 20.7422 64.5508 25.2735 66.6211 31.3086C67.4023 33.5938 67.5781 34.9805 67.5781 39.1016V42.7344L66.7969 42.4414C66.0351 42.1289 66.0156 42.1094 66.0156 41.1719V40.2344H64.1601C59.414 40.2344 54.9414 38.3008 51.3867 34.6875L49.9414 33.2227L48.2226 34.8438C44.3554 38.5352 40.3906 40.2344 35.6445 40.2344H33.789V41.1719C33.789 42.1094 33.7695 42.1289 32.9883 42.4414L32.1875 42.7539L32.2851 38.2227C32.3828 33.1641 32.5 32.5195 33.8086 29.7266C36.1523 24.6875 40.7422 20.957 45.9179 19.8438C48.7109 19.2578 50.3711 19.1992 52.7929 19.6289ZM51.2695 38.9258C53.8086 41.0156 57.4804 42.6758 60.6445 43.1641C61.5039 43.3008 62.3242 43.4375 62.4609 43.4766C62.6367 43.5352 62.6953 44.6875 62.6953 48.4766C62.6953 53.7891 62.5586 54.7852 61.6406 56.875L61.1328 58.0078L55.5273 58.0469L49.9023 58.1055V59.668V61.2305L54.1015 61.3281L58.3008 61.4258L57.3828 62.0703C55.9961 63.0274 54.1992 63.8281 52.5781 64.1797C50.6445 64.6094 47.6562 64.4727 45.8984 63.8867C41.9336 62.5391 38.9062 59.4336 37.5586 55.3711C37.0703 53.8867 37.0508 53.5742 36.9531 48.75C36.8554 43.2227 36.8359 43.3594 38.0078 43.3594C38.9453 43.3594 42.1484 42.5 43.75 41.7969C45.2539 41.1719 48.6523 39.0235 49.2969 38.3008C49.5117 38.0664 49.7461 37.8906 49.8437 37.8906C49.9414 37.8906 50.5664 38.3594 51.2695 38.9258ZM33.789 48.4766V51.2305L33.2812 50.7617C33.0078 50.5078 32.6562 50.0586 32.5 49.7656C32.1679 49.1406 32.1484 47.5977 32.4414 47.0117C32.7343 46.4649 33.4179 45.7031 33.6328 45.7031C33.7109 45.7031 33.789 46.9531 33.789 48.4766ZM67.2265 46.8945C67.9101 48.1641 67.6172 49.7461 66.5234 50.7617L66.0156 51.2305V48.457V45.6641L66.4453 45.9375C66.6797 46.0938 67.0312 46.5235 67.2265 46.8945ZM67.5781 55.5664C67.5781 56.875 67.5195 57.1094 67.0898 57.5195C66.7187 57.9102 66.4258 58.0078 65.664 58.0078H64.707L65.1562 56.6797C65.4101 55.957 65.625 55.2344 65.625 55.0781C65.625 54.8242 66.7578 54.2383 67.4414 54.1211C67.5195 54.1211 67.5781 54.7656 67.5781 55.5664ZM17.1875 64.5508L16.3086 65.4297L12.5976 61.7188L8.90622 58.0078L9.7656 57.1289L10.6445 56.25L14.3554 59.961L18.0664 63.6719L17.1875 64.5508ZM13.3984 68.457C12.3828 69.9219 12.2656 71.836 13.0664 73.3789C13.6523 74.5117 26.0937 86.8164 27.0508 87.2266C28.5547 87.8516 30.8789 87.5 31.9336 86.5234C32.3437 86.1524 32.3437 86.1524 36.0351 89.8633L39.7461 93.5742L38.7304 94.5313C38.164 95.0586 37.1875 95.7227 36.582 96.0352C35.5273 96.543 35.2734 96.582 33.2031 96.582C29.5312 96.582 30.5664 97.4024 16.6601 83.5156C3.63279 70.5078 3.98435 70.918 3.47654 68.1641C3.04685 65.8594 3.84763 63.2813 5.60544 61.3281L6.50388 60.3125L10.1953 64.0235L13.9062 67.7149L13.3984 68.457ZM50 67.6367C51.582 67.6367 52.8125 67.5195 53.5156 67.3242C54.1015 67.168 54.6094 67.0508 54.6289 67.0703C54.6484 67.0899 53.5937 68.1836 52.2851 69.4922L49.9023 71.875L47.4804 69.4531L45.0586 67.0313L46.3086 67.3438C47.1289 67.5391 48.3789 67.6563 50 67.6367ZM46.3281 72.9883L49.8047 76.4649L53.3008 72.9688L56.7969 69.4727L62.9297 70.586C67.8711 71.4844 69.2773 71.7969 70.2344 72.2656C71.5625 72.9102 72.7734 73.9844 73.5351 75.1953C73.9648 75.8594 76.5625 83.125 76.5625 83.6328C76.5625 83.7109 69.0625 83.7891 59.9023 83.7891H43.2617L40.2344 80.7617C38.5742 79.1016 37.1289 77.7344 37.0508 77.7344C36.9531 77.7344 35.625 78.8672 34.1015 80.2344C29.6875 84.2578 29.5312 84.375 28.8672 84.375C28.3593 84.375 27.9297 84.043 26.2695 82.4024L24.2578 80.4297L25.0195 78.1836C25.8789 75.625 26.6406 74.3164 27.8125 73.3399C29.3359 72.1094 30.4492 71.7578 36.4258 70.625C39.5508 70.0586 42.2656 69.5703 42.4804 69.5508C42.7344 69.5313 44.0429 70.7031 46.3281 72.9883ZM43.3203 90.3711L42.2851 91.4063L38.5742 87.6953L34.8633 83.9649L35.9179 82.9883L36.9726 81.9922L40.6445 85.6641L44.3359 89.3555L43.3203 90.3711Z" fill="black"/>
<path d="M89.3752 30.5078C89.219 30.7617 87.9494 32.8711 86.5432 35.2148L84.0041 39.4531L84.8244 39.9609C85.2736 40.2344 85.84 40.5859 86.0744 40.7422C86.3088 40.8984 86.5822 41.0156 86.6604 41.0156C86.758 41.0156 87.4221 40 88.1643 38.75C89.0627 37.2656 89.5705 36.582 89.6682 36.7578C89.7463 36.8945 90.0393 37.8516 90.3127 38.8672C93.633 51.0937 91.2502 64.2383 83.8869 74.5117C83.2619 75.3711 82.7346 76.1719 82.676 76.2891C82.5979 76.4844 84.6682 78.3203 84.9807 78.3203C85.215 78.3203 87.383 75.2148 88.7111 72.9883C92.8908 65.957 94.9611 58.3203 94.9807 50C94.9807 45.5078 94.3361 40.9766 93.1643 37.1289C92.9494 36.4258 92.8127 35.8398 92.8322 35.8008C92.8908 35.7617 94.59 36.7578 96.8166 38.1055L97.4416 38.4961L98.2619 37.1094C98.7111 36.3477 99.0432 35.7031 99.0041 35.6641C98.9065 35.5664 90.5471 30.5469 90.0393 30.2734C89.7268 30.1172 89.6096 30.1562 89.3752 30.5078Z" fill="black"/>
</g>
<defs>
<clipPath id="clip0_734_111">
<rect width="100" height="100" fill="white"/>
</clipPath>
</defs>
</svg>
