<svg width="142" height="55" viewBox="0 0 142 55" fill="none" xmlns="http://www.w3.org/2000/svg">
<path d="M0 40.1642V14.8357H142V40.1642H0Z" fill="#5702CF"/>
<path d="M3.75928 36.4093V18.5906H138.24V36.4093H3.75928Z" fill="#5702CF"/>
<path d="M13.0602 23.9758V32.517H10.6385V23.9758H7.52002L7.78691 22.4803H16.2152L15.9483 23.9758H13.0602ZM20.2888 32.517H17.8671V22.4803H20.2888V26.5853H24.4524V22.4803H26.8741V32.517H24.4524V28.078H20.2888V32.517ZM35.7294 32.517H29.3689V22.4803H35.926L35.6591 23.9758H31.7906V26.6386H35.1647L34.9203 28.0303H31.7906V31.0242H35.9963L35.7294 32.517ZM45.5483 23.9758V32.517H43.1266V23.9758H40.0081L40.275 22.4803H48.7033L48.4364 23.9758H45.5483ZM52.791 31.1617C53.0064 31.1617 53.2124 31.1374 53.409 31.0887C53.6057 31.0401 53.779 30.9662 53.9288 30.8671C54.0805 30.7661 54.2022 30.6379 54.294 30.4827C54.3858 30.3274 54.4317 30.1422 54.4317 29.9271C54.4317 29.6708 54.3671 29.4538 54.2378 29.2761C54.1105 29.0984 53.94 28.9422 53.7265 28.8076C53.5149 28.6729 53.2742 28.5494 53.0045 28.4372C52.7348 28.3249 52.4595 28.209 52.1785 28.0892C51.8957 27.9677 51.6213 27.833 51.3554 27.6852C51.0875 27.5356 50.8469 27.356 50.6333 27.1465C50.4217 26.937 50.2513 26.6872 50.122 26.3973C49.9947 26.1074 49.931 25.7613 49.931 25.3591C49.931 24.8971 50.02 24.4799 50.1979 24.1077C50.3758 23.7354 50.6296 23.4193 50.9592 23.1593C51.2889 22.8993 51.6859 22.6982 52.1504 22.556C52.6149 22.4157 53.1328 22.3456 53.704 22.3456C53.8595 22.3456 54.0412 22.3512 54.2491 22.3624C54.457 22.3736 54.6798 22.3923 54.9177 22.4185C55.1556 22.4466 55.4 22.4831 55.651 22.528C55.9019 22.5747 56.1492 22.6318 56.3927 22.6991L56.0415 24.3097L55.9179 24.3658C55.7043 24.2686 55.4908 24.1872 55.2773 24.1217C55.0657 24.0562 54.8596 24.0011 54.6592 23.9562C54.4607 23.9131 54.2744 23.8832 54.1002 23.8664C53.9279 23.8477 53.7752 23.8383 53.6422 23.8383C53.2021 23.8383 52.8509 23.9318 52.5887 24.1189C52.3265 24.306 52.1954 24.58 52.1954 24.941C52.1954 25.1973 52.2591 25.4134 52.3864 25.5892C52.5138 25.765 52.6842 25.9212 52.8977 26.0578C53.1094 26.1943 53.3501 26.3187 53.6198 26.431C53.8913 26.5432 54.1676 26.661 54.4485 26.7845C54.7295 26.9061 55.0048 27.0408 55.2745 27.1886C55.5442 27.3345 55.7849 27.5122 55.9965 27.7217C56.21 27.9312 56.3805 28.179 56.5078 28.4652C56.6371 28.7496 56.7017 29.091 56.7017 29.4894C56.7017 29.9552 56.6099 30.3807 56.4264 30.7661C56.2428 31.1533 55.9806 31.4872 55.6397 31.7678C55.3007 32.0484 54.8896 32.2663 54.4064 32.4215C53.9232 32.5768 53.38 32.6544 52.7769 32.6544C52.5541 32.6544 52.3115 32.6413 52.0493 32.6152C51.789 32.5908 51.5211 32.5534 51.2458 32.5029C50.9686 32.4524 50.6877 32.386 50.403 32.3037C50.1202 32.2214 49.8458 32.1213 49.5798 32.0035L49.9366 30.3873L50.0743 30.3171C50.3346 30.4406 50.5837 30.5547 50.8216 30.6594C51.0594 30.7661 51.2898 30.8559 51.5127 30.9288C51.7337 31.0018 51.9491 31.0588 52.1589 31.1C52.3705 31.1411 52.5812 31.1617 52.791 31.1617ZM60.986 32.517H58.5643V22.4803H60.986V26.5853H65.1496V22.4803H67.5713V32.517H65.1496V28.078H60.986V32.517ZM72.4878 22.4803V32.517H70.0661V22.4803H72.4878ZM78.6826 28.8048H77.4071V32.517H74.9854V22.4803H78.5927C79.2463 22.4803 79.8157 22.5513 80.3008 22.6935C80.7859 22.8357 81.1895 23.0265 81.5117 23.2659C81.8338 23.5054 82.0745 23.7831 82.2337 24.0993C82.3947 24.4135 82.4753 24.7446 82.4753 25.0926C82.4753 25.4068 82.4153 25.7042 82.2955 25.9848C82.1775 26.2654 82.0248 26.5236 81.8375 26.7593C81.6503 26.9949 81.4405 27.2091 81.2082 27.4018C80.9779 27.5963 80.7531 27.7666 80.534 27.9125L83.3462 32.517H80.534L78.6826 28.8048ZM77.4071 23.9758V27.413H79.1405C79.2697 27.3457 79.3924 27.254 79.5085 27.138C79.6247 27.0239 79.7277 26.893 79.8176 26.7452C79.9056 26.5974 79.9777 26.4319 80.0339 26.2486C80.0882 26.0653 80.1154 25.867 80.1154 25.6537C80.1154 25.4162 80.0788 25.1945 80.0058 24.9887C79.9328 24.783 79.8232 24.6043 79.6771 24.4528C79.531 24.3032 79.3503 24.1862 79.1349 24.1021C78.9195 24.0179 78.6676 23.9758 78.3792 23.9758H77.4071ZM89.4005 23.9758V32.517H86.9788V23.9758H83.8603L84.1272 22.4803H92.5555L92.2886 23.9758H89.4005ZM99.5594 31.1617C99.7729 31.1617 99.978 31.1374 100.175 31.0887C100.371 31.0401 100.545 30.9662 100.697 30.8671C100.847 30.7661 100.968 30.6379 101.06 30.4827C101.151 30.3274 101.197 30.1422 101.197 29.9271C101.197 29.6708 101.134 29.4538 101.006 29.2761C100.877 29.0984 100.707 28.9422 100.495 28.8076C100.281 28.6729 100.04 28.5494 99.7701 28.4372C99.5004 28.3249 99.225 28.209 98.9441 28.0892C98.6631 27.9677 98.3888 27.833 98.1209 27.6852C97.8531 27.5356 97.6134 27.356 97.4017 27.1465C97.1882 26.937 97.0178 26.6872 96.8904 26.3973C96.7612 26.1074 96.6966 25.7613 96.6966 25.3591C96.6966 24.8971 96.7865 24.4799 96.9663 24.1077C97.1442 23.7354 97.398 23.4193 97.7276 23.1593C98.0554 22.8993 98.4515 22.6982 98.916 22.556C99.3805 22.4157 99.8984 22.3456 100.47 22.3456C100.625 22.3456 100.807 22.3512 101.015 22.3624C101.223 22.3736 101.445 22.3923 101.683 22.4185C101.921 22.4466 102.166 22.4831 102.419 22.528C102.67 22.5747 102.917 22.6318 103.158 22.6991L102.81 24.3097L102.686 24.3658C102.471 24.2686 102.257 24.1872 102.046 24.1217C101.832 24.0562 101.626 24.0011 101.428 23.9562C101.229 23.9131 101.043 23.8832 100.869 23.8664C100.694 23.8477 100.541 23.8383 100.408 23.8383C99.9695 23.8383 99.6193 23.9318 99.3571 24.1189C99.093 24.306 98.9609 24.58 98.9609 24.941C98.9609 25.1973 99.0246 25.4134 99.152 25.5892C99.2812 25.765 99.4517 25.9212 99.6633 26.0578C99.8768 26.1943 100.118 26.3187 100.388 26.431C100.658 26.5432 100.933 26.661 101.214 26.7845C101.495 26.9061 101.77 27.0408 102.04 27.1886C102.31 27.3345 102.551 27.5122 102.765 27.7217C102.977 27.9312 103.147 28.179 103.276 28.4652C103.404 28.7496 103.467 29.091 103.467 29.4894C103.467 29.9552 103.375 30.3807 103.192 30.7661C103.01 31.1533 102.749 31.4872 102.408 31.7678C102.067 32.0484 101.655 32.2663 101.172 32.4215C100.691 32.5768 100.148 32.6544 99.5453 32.6544C99.3206 32.6544 99.078 32.6413 98.8177 32.6152C98.5573 32.5908 98.2886 32.5534 98.0114 32.5029C97.7342 32.4524 97.4542 32.386 97.1713 32.3037C96.8885 32.2214 96.6141 32.1213 96.3482 32.0035L96.705 30.3873L96.8426 30.3171C97.103 30.4406 97.3521 30.5547 97.5899 30.6594C97.8278 30.7661 98.0573 30.8559 98.2783 30.9288C98.5011 31.0018 98.7175 31.0588 98.9272 31.1C99.137 31.1411 99.3477 31.1617 99.5594 31.1617ZM107.754 23.9758V32.517H105.333V22.4803H108.94C109.603 22.4803 110.191 22.5551 110.704 22.7047C111.216 22.8525 111.646 23.0658 111.997 23.3445C112.347 23.6232 112.611 23.959 112.789 24.3518C112.967 24.7446 113.056 25.187 113.056 25.679C113.056 26.214 112.958 26.6985 112.764 27.1324C112.569 27.5664 112.305 27.9349 111.971 28.238C111.638 28.5429 111.248 28.7776 110.803 28.9422C110.357 29.105 109.882 29.1864 109.378 29.1864C109.305 29.1864 109.235 29.1845 109.168 29.1807C109.098 29.177 109.018 29.1676 108.926 29.1527L109.044 27.7834C109.08 27.7928 109.125 27.7984 109.182 27.8002C109.236 27.8021 109.286 27.803 109.331 27.803C109.559 27.803 109.759 27.7544 109.932 27.6571C110.102 27.558 110.244 27.4243 110.356 27.2559C110.468 27.0875 110.554 26.8911 110.612 26.6667C110.668 26.4422 110.696 26.2028 110.696 25.9484C110.696 25.5911 110.652 25.288 110.564 25.0392C110.474 24.7905 110.346 24.5875 110.179 24.4304C110.012 24.2732 109.811 24.1582 109.575 24.0852C109.339 24.0123 109.075 23.9758 108.783 23.9758H107.754ZM119.79 31.1617C120.215 31.1617 120.594 31.0635 120.928 30.8671C121.263 30.6707 121.545 30.4069 121.773 30.0758C122.002 29.7447 122.175 29.3603 122.293 28.9226C122.413 28.4867 122.473 28.0313 122.473 27.5561C122.473 27.0455 122.406 26.5656 122.273 26.1167C122.141 25.6659 121.952 25.2712 121.709 24.9326C121.463 24.5959 121.168 24.3293 120.824 24.1329C120.477 23.9365 120.094 23.8383 119.675 23.8383C119.25 23.8383 118.871 23.9375 118.54 24.1357C118.208 24.334 117.929 24.5987 117.703 24.9298C117.476 25.2609 117.303 25.6444 117.183 26.0802C117.065 26.5161 117.006 26.9716 117.006 27.4467C117.006 27.9592 117.072 28.44 117.205 28.8889C117.338 29.3397 117.526 29.7326 117.767 30.0674C118.009 30.4041 118.301 30.6707 118.644 30.8671C118.988 31.0635 119.37 31.1617 119.79 31.1617ZM119.557 32.6544C118.839 32.6544 118.173 32.5431 117.556 32.3205C116.942 32.0998 116.408 31.7781 115.955 31.3553C115.504 30.9326 115.149 30.4153 114.89 29.8036C114.632 29.192 114.503 28.4961 114.503 27.7161C114.503 26.9154 114.638 26.1859 114.91 25.5275C115.182 24.8671 115.559 24.3013 116.042 23.8299C116.525 23.3604 117.097 22.9956 117.756 22.7356C118.417 22.4756 119.139 22.3456 119.922 22.3456C120.634 22.3456 121.298 22.455 121.914 22.6739C122.528 22.8927 123.062 23.2135 123.515 23.6363C123.969 24.059 124.323 24.5763 124.58 25.188C124.838 25.7996 124.968 26.4955 124.968 27.2755C124.968 27.8105 124.907 28.3147 124.785 28.7879C124.662 29.2593 124.486 29.6952 124.26 30.0955C124.033 30.4958 123.758 30.8531 123.434 31.1673C123.108 31.4816 122.745 31.75 122.347 31.9726C121.946 32.1933 121.511 32.3626 121.043 32.4805C120.573 32.5965 120.077 32.6544 119.557 32.6544ZM131.325 23.9758V32.517H128.907V23.9758H125.785L126.052 22.4803H134.48L134.214 23.9758H131.325Z" fill="white"/>
<path d="M29.9377 8.69782V12.3325H17.0176V8.69782H0.379883L1.80368 0.71854H46.77L45.3462 8.69782H29.9377ZM29.9377 54.2664H17.0176V42.6675H29.9377V54.2664ZM82.1286 8.69782V12.3325H69.2085V8.69782H52.5557L53.9799 0.71854H98.9613L97.5371 8.69782H82.1286ZM82.1286 54.2664H69.2085V42.6675H82.1286V54.2664ZM120.77 47.0358C121.919 47.0358 123.018 46.9061 124.067 46.6468C125.117 46.3874 126.041 45.9933 126.84 45.4639C127.65 44.925 128.294 44.2413 128.774 43.413C128.913 43.1774 129.032 42.9288 129.132 42.6675H141.01C140.789 43.4467 140.507 44.1993 140.165 44.925C139.186 46.991 137.787 48.7723 135.968 50.2692C134.15 51.7662 131.956 52.9288 129.388 53.7572C126.81 54.5856 123.912 54.9996 120.695 55C119.496 55 118.202 54.9302 116.813 54.7902C115.424 54.6606 113.99 54.4607 112.511 54.1914C111.042 53.9218 109.548 53.5677 108.029 53.1287C106.521 52.6897 105.057 52.1556 103.638 51.5267L105.541 42.9042L106.006 42.6675H106.567C107.851 43.2734 109.083 43.8365 110.263 44.3563C111.532 44.9254 112.761 45.4044 113.95 45.7934C115.129 46.1828 116.278 46.487 117.397 46.7067C118.526 46.9263 119.65 47.0362 120.77 47.0358ZM106.935 9.40129C107.884 7.41539 109.238 5.72849 110.997 4.34137C112.756 2.95426 114.874 1.88121 117.352 1.12302C119.82 0.374339 122.583 0.000396545 125.641 0C126.47 0 127.44 0.0297414 128.549 0.0900162C129.658 0.149894 130.847 0.249824 132.116 0.389408C133.385 0.539302 134.69 0.733609 136.028 0.973122C137.367 1.22255 138.687 1.52709 139.985 1.88636L138.112 10.4791L137.452 10.7785C136.303 10.2594 135.164 9.82559 134.035 9.47624C132.896 9.12688 131.797 8.83264 130.737 8.59273C129.678 8.36313 128.684 8.20333 127.754 8.11371C126.825 8.01378 126.011 7.96381 125.311 7.96421C122.963 7.96421 121.09 8.46306 119.69 9.46117C118.678 10.1785 118.029 11.1358 117.744 12.3325H105.917C106.154 11.3035 106.493 10.3264 106.935 9.40129Z" fill="white"/>
</svg>
