<svg width="100" height="100" viewBox="0 0 100 100" fill="none" xmlns="http://www.w3.org/2000/svg">
<path d="M4.83594 58.0804V41.97H95.0433V58.0804H4.83594Z" fill="#5702CF"/>
<path d="M7.22412 55.6921V44.3583H92.6548V55.6921H7.22412Z" fill="#5702CF"/>
<path d="M13.1327 47.7836V53.2163H11.5943V47.7836H9.61328L9.78283 46.8324H15.137L14.9674 47.7836H13.1327ZM17.7248 53.2163H16.1864V46.8324H17.7248V49.4434H20.3698V46.8324H21.9082V53.2163H20.3698V50.3929H17.7248V53.2163ZM27.5337 53.2163H23.493V46.8324H27.6586L27.489 47.7836H25.0315V49.4773H27.1749L27.0197 50.3625H25.0315V52.2668H27.7032L27.5337 53.2163ZM33.7712 47.7836V53.2163H32.2328V47.7836H30.2518L30.4213 46.8324H35.7755L35.6059 47.7836H33.7712ZM38.3723 52.3543C38.5091 52.3543 38.64 52.3388 38.7649 52.3079C38.8898 52.277 38.9999 52.23 39.0951 52.1669C39.1914 52.1026 39.2688 52.0211 39.3271 51.9224C39.3854 51.8236 39.4145 51.7058 39.4145 51.569C39.4145 51.406 39.3735 51.268 39.2914 51.155C39.2105 51.0419 39.1022 50.9426 38.9666 50.8569C38.8321 50.7712 38.6792 50.6927 38.5079 50.6213C38.3366 50.5499 38.1617 50.4762 37.9832 50.4C37.8035 50.3227 37.6292 50.237 37.4603 50.143C37.2901 50.0478 37.1372 49.9336 37.0016 49.8004C36.8671 49.6671 36.7589 49.5083 36.6768 49.3238C36.5959 49.1394 36.5554 48.9193 36.5554 48.6635C36.5554 48.3696 36.6119 48.1043 36.725 47.8675C36.838 47.6307 36.9992 47.4297 37.2086 47.2643C37.418 47.0989 37.6703 46.971 37.9653 46.8806C38.2604 46.7913 38.5894 46.7467 38.9523 46.7467C39.051 46.7467 39.1665 46.7503 39.2985 46.7574C39.4306 46.7646 39.5722 46.7764 39.7233 46.7931C39.8744 46.811 40.0297 46.8342 40.1891 46.8627C40.3485 46.8925 40.5056 46.9287 40.6603 46.9716L40.4372 47.996L40.3586 48.0317C40.223 47.9698 40.0874 47.9181 39.9517 47.8764C39.8173 47.8348 39.6864 47.7997 39.5591 47.7711C39.433 47.7438 39.3146 47.7247 39.2039 47.714C39.0945 47.7021 38.9975 47.6962 38.913 47.6962C38.6334 47.6962 38.4103 47.7557 38.2438 47.8746C38.0772 47.9936 37.9939 48.1679 37.9939 48.3976C37.9939 48.5606 38.0343 48.698 38.1153 48.8098C38.1962 48.9217 38.3044 49.021 38.4401 49.1079C38.5745 49.1947 38.7274 49.2739 38.8987 49.3453C39.0713 49.4166 39.2468 49.4916 39.4252 49.5701C39.6037 49.6475 39.7786 49.7331 39.9499 49.8271C40.1213 49.9199 40.2742 50.033 40.4086 50.1662C40.5443 50.2995 40.6525 50.4571 40.7334 50.6392C40.8155 50.82 40.8566 51.0372 40.8566 51.2906C40.8566 51.5869 40.7983 51.8575 40.6817 52.1026C40.5651 52.3489 40.3985 52.5613 40.182 52.7398C39.9666 52.9183 39.7054 53.0569 39.3985 53.1556C39.0915 53.2544 38.7464 53.3038 38.3633 53.3038C38.2217 53.3038 38.0677 53.2954 37.9011 53.2788C37.7357 53.2633 37.5656 53.2395 37.3907 53.2074C37.2146 53.1753 37.0361 53.133 36.8552 53.0807C36.6756 53.0283 36.5013 52.9647 36.3323 52.8897L36.559 51.8617L36.6464 51.8171C36.8118 51.8956 36.9701 51.9682 37.1212 52.0348C37.2723 52.1026 37.4186 52.1598 37.5602 52.2062C37.7006 52.2526 37.8374 52.2889 37.9707 52.315C38.1051 52.3412 38.239 52.3543 38.3723 52.3543ZM43.5783 53.2163H42.0399V46.8324H43.5783V49.4434H46.2232V46.8324H47.7617V53.2163H46.2232V50.3929H43.5783V53.2163ZM50.8849 46.8324V53.2163H49.3465V46.8324H50.8849ZM54.8202 50.8551H54.01V53.2163H52.4715V46.8324H54.7631C55.1784 46.8324 55.5401 46.8776 55.8482 46.968C56.1564 47.0584 56.4128 47.1798 56.6174 47.3321C56.8221 47.4844 56.975 47.6611 57.0761 47.8622C57.1784 48.062 57.2296 48.2726 57.2296 48.4939C57.2296 48.6938 57.1915 48.883 57.1154 49.0615C57.0404 49.24 56.9435 49.4042 56.8245 49.5541C56.7055 49.704 56.5722 49.8402 56.4247 49.9628C56.2783 50.0865 56.1356 50.1948 55.9964 50.2876L57.7829 53.2163H55.9964L54.8202 50.8551ZM54.01 47.7836V49.9699H55.1111C55.1932 49.9271 55.2712 49.8688 55.3449 49.795C55.4187 49.7224 55.4841 49.6391 55.5413 49.5451C55.5972 49.4511 55.643 49.3459 55.6787 49.2292C55.7132 49.1126 55.7304 48.9865 55.7304 48.8509C55.7304 48.6998 55.7072 48.5588 55.6608 48.4279C55.6144 48.297 55.5448 48.1834 55.452 48.087C55.3592 47.9918 55.2444 47.9175 55.1076 47.8639C54.9707 47.8104 54.8107 47.7836 54.6275 47.7836H54.01ZM61.6289 47.7836V53.2163H60.0905V47.7836H58.1095L58.279 46.8324H63.6332L63.4636 47.7836H61.6289ZM68.0825 52.3543C68.2181 52.3543 68.3484 52.3388 68.4733 52.3079C68.5983 52.277 68.7089 52.23 68.8053 52.1669C68.9005 52.1026 68.9772 52.0211 69.0355 51.9224C69.0938 51.8236 69.123 51.7058 69.123 51.569C69.123 51.406 69.0825 51.268 69.0016 51.155C68.9195 51.0419 68.8112 50.9426 68.6768 50.8569C68.5412 50.7712 68.3877 50.6927 68.2163 50.6213C68.045 50.5499 67.8701 50.4762 67.6916 50.4C67.5132 50.3227 67.3388 50.237 67.1687 50.143C66.9986 50.0478 66.8463 49.9336 66.7118 49.8004C66.5762 49.6671 66.4679 49.5083 66.387 49.3238C66.3049 49.1394 66.2639 48.9193 66.2639 48.6635C66.2639 48.3696 66.321 48.1043 66.4352 47.8675C66.5482 47.6307 66.7094 47.4297 66.9188 47.2643C67.1271 47.0989 67.3787 46.971 67.6738 46.8806C67.9689 46.7913 68.2978 46.7467 68.6607 46.7467C68.7595 46.7467 68.8749 46.7503 69.007 46.7574C69.139 46.7646 69.2806 46.7764 69.4317 46.7931C69.5828 46.811 69.7387 46.8342 69.8993 46.8627C70.0588 46.8925 70.2152 46.9287 70.3687 46.9716L70.1474 47.996L70.0689 48.0317C69.932 47.9698 69.7964 47.9181 69.662 47.8764C69.5263 47.8348 69.3954 47.7997 69.2693 47.7711C69.1432 47.7438 69.0248 47.7247 68.9142 47.714C68.8035 47.7021 68.7059 47.6962 68.6215 47.6962C68.343 47.6962 68.1206 47.7557 67.954 47.8746C67.7862 47.9936 67.7023 48.1679 67.7023 48.3976C67.7023 48.5606 67.7428 48.698 67.8237 48.8098C67.9058 48.9217 68.0141 49.021 68.1485 49.1079C68.2842 49.1947 68.4376 49.2739 68.609 49.3453C68.7803 49.4166 68.9552 49.4916 69.1337 49.5701C69.3122 49.6475 69.4871 49.7331 69.6584 49.8271C69.8297 49.9199 69.9832 50.033 70.1188 50.1662C70.2533 50.2995 70.3616 50.4571 70.4437 50.6392C70.5246 50.82 70.565 51.0372 70.565 51.2906C70.565 51.5869 70.5067 51.8575 70.3901 52.1026C70.2747 52.3489 70.1087 52.5613 69.8922 52.7398C69.6756 52.9183 69.4139 53.0569 69.1069 53.1556C68.8011 53.2544 68.4567 53.3038 68.0736 53.3038C67.9308 53.3038 67.7767 53.2954 67.6113 53.2788C67.4459 53.2633 67.2752 53.2395 67.0991 53.2074C66.923 53.1753 66.7451 53.133 66.5655 53.0807C66.3858 53.0283 66.2115 52.9647 66.0425 52.8897L66.2692 51.8617L66.3567 51.8171C66.522 51.8956 66.6803 51.9682 66.8314 52.0348C66.9825 52.1026 67.1283 52.1598 67.2686 52.2062C67.4102 52.2526 67.5477 52.2889 67.6809 52.315C67.8142 52.3412 67.948 52.3543 68.0825 52.3543ZM73.2885 47.7836V53.2163H71.7501V46.8324H74.0417C74.4629 46.8324 74.8365 46.88 75.1625 46.9751C75.4873 47.0691 75.7609 47.2048 75.9834 47.3821C76.2059 47.5593 76.3737 47.7729 76.4867 48.0228C76.5998 48.2726 76.6563 48.554 76.6563 48.867C76.6563 49.2072 76.5944 49.5154 76.4707 49.7914C76.3469 50.0675 76.1792 50.3019 75.9674 50.4946C75.7556 50.6886 75.5081 50.8379 75.2249 50.9426C74.9418 51.0461 74.6401 51.0979 74.3201 51.0979C74.2737 51.0979 74.2291 51.0967 74.1862 51.0943C74.1422 51.0919 74.091 51.086 74.0327 51.0764L74.1077 50.2055C74.1303 50.2114 74.1595 50.215 74.1951 50.2162C74.2296 50.2174 74.2612 50.218 74.2897 50.218C74.4349 50.218 74.5622 50.187 74.6717 50.1252C74.7799 50.0621 74.8698 49.977 74.9412 49.87C75.0125 49.7629 75.0667 49.6379 75.1036 49.4952C75.1393 49.3524 75.1571 49.2001 75.1571 49.0383C75.1571 48.811 75.1292 48.6183 75.0732 48.46C75.0161 48.3018 74.9346 48.1727 74.8287 48.0728C74.7228 47.9728 74.5949 47.8996 74.445 47.8532C74.2951 47.8068 74.1273 47.7836 73.9417 47.7836H73.2885ZM80.9342 52.3543C81.2043 52.3543 81.4453 52.2918 81.6571 52.1669C81.87 52.042 82.0491 51.8742 82.1943 51.6636C82.3394 51.453 82.4495 51.2085 82.5244 50.9301C82.6006 50.6529 82.6387 50.3631 82.6387 50.0609C82.6387 49.7361 82.5964 49.4309 82.5119 49.1454C82.4275 48.8586 82.3079 48.6076 82.1532 48.3922C81.9973 48.178 81.8099 48.0085 81.591 47.8836C81.3709 47.7586 81.1276 47.6962 80.8611 47.6962C80.591 47.6962 80.3506 47.7592 80.14 47.8854C79.9294 48.0115 79.7522 48.1798 79.6082 48.3904C79.4642 48.601 79.3542 48.8449 79.278 49.1222C79.2031 49.3994 79.1656 49.6891 79.1656 49.9913C79.1656 50.3173 79.2078 50.6231 79.2923 50.9087C79.3768 51.1954 79.4958 51.4453 79.6492 51.6583C79.8027 51.8724 79.9883 52.042 80.2061 52.1669C80.425 52.2918 80.6677 52.3543 80.9342 52.3543ZM80.7861 53.3038C80.3304 53.3038 79.9068 53.233 79.5154 53.0914C79.1251 52.951 78.786 52.7463 78.4981 52.4774C78.2114 52.2085 77.9859 51.8796 77.8217 51.4905C77.6575 51.1014 77.5754 50.6588 77.5754 50.1627C77.5754 49.6534 77.6617 49.1894 77.8342 48.7706C78.0067 48.3506 78.2465 47.9907 78.5534 47.6908C78.8604 47.3922 79.2233 47.1602 79.6421 46.9948C80.0621 46.8294 80.5208 46.7467 81.0181 46.7467C81.4703 46.7467 81.892 46.8163 82.2835 46.9555C82.6738 47.0947 83.0128 47.2988 83.3008 47.5677C83.5887 47.8366 83.8142 48.1656 83.9772 48.5546C84.1414 48.9437 84.2235 49.3863 84.2235 49.8825C84.2235 50.2227 84.1848 50.5434 84.1075 50.8444C84.029 51.1443 83.9177 51.4215 83.7737 51.6761C83.6298 51.9307 83.4549 52.158 83.249 52.3579C83.042 52.5578 82.8118 52.7285 82.5583 52.8701C82.3037 53.0105 82.0277 53.1182 81.7302 53.1931C81.4316 53.2669 81.1169 53.3038 80.7861 53.3038ZM88.2623 47.7836V53.2163H86.7257V47.7836H84.7428L84.9124 46.8324H90.2665L90.097 47.7836H88.2623Z" fill="white"/>
<path d="M23.8542 38.0659V40.3778H15.6465V38.0659H5.07715L5.98163 32.9906H34.5471L33.6426 38.0659H23.8542ZM23.8542 67.0503H15.6465V59.6727H23.8542V67.0503ZM57.0091 38.0659V40.3778H48.8014V38.0659H38.2225L39.1273 32.9906H67.7023L66.7975 38.0659H57.0091ZM57.0091 67.0503H48.8014V59.6727H57.0091V67.0503ZM81.5563 62.4512C82.2863 62.4512 82.9847 62.3687 83.6513 62.2038C84.318 62.0388 84.9051 61.7881 85.4126 61.4514C85.9269 61.1086 86.3363 60.6737 86.641 60.1468C86.7295 59.997 86.8054 59.8389 86.8687 59.6727H94.4146C94.2738 60.1683 94.095 60.647 93.8776 61.1086C93.2556 62.4227 92.3668 63.5557 91.2116 64.5078C90.0564 65.46 88.6628 66.1995 87.0314 66.7264C85.3937 67.2533 83.5527 67.5167 81.5089 67.5169C80.7472 67.5169 79.9252 67.4725 79.0426 67.3835C78.1603 67.301 77.2493 67.1739 76.3098 67.0026C75.3765 66.8311 74.4276 66.6059 73.4629 66.3266C72.5044 66.0474 71.5745 65.7077 70.673 65.3077L71.8822 59.8232L72.1773 59.6727H72.5337C73.3494 60.0581 74.132 60.4162 74.8816 60.7469C75.6878 61.1088 76.4687 61.4135 77.2241 61.661C77.9732 61.9086 78.7031 62.1021 79.4139 62.2418C80.1312 62.3816 80.8453 62.4514 81.5563 62.4512ZM72.7677 38.5134C73.3708 37.2502 74.2309 36.1772 75.3483 35.2949C76.4654 34.4127 77.8113 33.7301 79.3854 33.2479C80.9533 32.7717 82.7085 32.5338 84.6509 32.5336C85.1778 32.5336 85.7935 32.5525 86.4982 32.5908C87.2029 32.6289 87.9581 32.6925 88.7645 32.7813C89.5706 32.8766 90.3991 33.0002 91.2496 33.1525C92.1002 33.3112 92.9383 33.5049 93.7633 33.7334L92.5731 39.1989L92.1541 39.3893C91.4242 39.0592 90.7006 38.7832 89.9832 38.561C89.2596 38.3388 88.5614 38.1517 87.8885 37.9991C87.2155 37.853 86.584 37.7514 85.9935 37.6944C85.403 37.6308 84.8857 37.599 84.4415 37.5993C82.9499 37.5993 81.7596 37.9166 80.8708 38.5514C80.2273 39.0077 79.8152 39.6166 79.6344 40.3778H72.1213C72.2714 39.7233 72.4868 39.1018 72.7677 38.5134Z" fill="white"/>
</svg>
