<svg width="34" height="35" viewBox="0 0 34 35" fill="none" xmlns="http://www.w3.org/2000/svg">
<path d="M15.4209 0.536362C6.51135 1.40072 -0.277197 9.06693 0.00870709 17.9565C0.0951431 20.543 0.653652 22.7837 1.79062 25.0642C3.4462 28.402 6.09247 31.0483 9.43688 32.7105C14.8558 35.41 21.2653 35.0376 26.3185 31.7331C28.2932 30.4432 30.1682 28.5283 31.4448 26.4937C31.9368 25.7225 32.6682 24.2198 33.0007 23.3156C33.3398 22.398 33.732 20.8156 33.8717 19.785C34.0246 18.7411 34.0445 16.3209 33.9116 15.3967C33.5193 12.6374 32.6416 10.2837 31.1855 8.08953C30.5738 7.15869 29.9555 6.40071 29.0911 5.5297C26.4382 2.85019 23.1403 1.18795 19.3704 0.629444C18.5592 0.509766 16.272 0.456573 15.4209 0.536362ZM22.3956 8.68129C22.9608 8.82756 23.7853 9.26639 24.1975 9.63873L24.5698 9.97118L25.1616 9.81161C25.8065 9.63873 26.5711 9.33953 27.0366 9.08022C27.2028 8.98714 27.3491 8.9273 27.369 8.9406C27.4222 9.00044 27.0499 9.73182 26.7507 10.1507C26.4781 10.523 26.1988 10.8089 25.6536 11.2345L25.4874 11.3608L25.9528 11.2744C26.5844 11.1547 27.143 11.0084 27.5751 10.8422C27.768 10.7624 27.9408 10.7159 27.9608 10.7292C28.0539 10.8289 26.4382 12.5576 25.9594 12.8701C25.7932 12.9831 25.7866 13.0097 25.7866 13.5815C25.7866 16.547 24.6297 19.672 22.6549 22.0456C19.7361 25.543 14.9954 27.1387 10.3278 26.1945C9.04459 25.9352 7.14965 25.2039 6.34513 24.6586L6.09912 24.4924L7.28263 24.4525C8.24007 24.4259 8.59247 24.386 9.13768 24.2464C10.3012 23.9539 11.2254 23.5483 12.1563 22.9166L12.655 22.5775L12.256 22.531C10.627 22.3182 9.27066 21.3142 8.61241 19.8182L8.44619 19.4459L9.19087 19.4525C9.59645 19.4525 10.0419 19.4259 10.1882 19.3994L10.4475 19.3462L9.9156 19.16C8.27997 18.5948 7.07651 17.0789 6.91029 15.3768C6.87039 14.9512 6.87704 14.8914 6.96348 14.9246C7.02332 14.9446 7.29593 15.0377 7.56853 15.1374C7.84114 15.2305 8.24672 15.3302 8.46614 15.3435L8.86507 15.3834L8.51933 15.1041C7.01667 13.894 6.47811 11.5536 7.30257 9.79166L7.50204 9.36613L8.18023 10.0776C9.77597 11.7464 11.6576 12.91 13.8185 13.5616C14.4236 13.7411 15.4342 13.9539 15.9462 14.0004C16.1855 14.0204 16.4714 14.0536 16.5845 14.0736L16.7906 14.1002L16.764 13.3555C16.7241 12.418 16.8438 11.8063 17.2028 11.0749C17.8877 9.69857 19.1177 8.81427 20.7002 8.55496C21.0326 8.50842 22.0033 8.57491 22.3956 8.68129Z" fill="white"/>
</svg>
